<?xml version="1.0" encoding="utf-8"?>
<!-- Generator: Adobe Illustrator 27.1.1, SVG Export Plug-In . SVG Version: 6.00 Build 0)  -->
<svg version="1.1" xmlns="http://www.w3.org/2000/svg" xmlns:xlink="http://www.w3.org/1999/xlink" x="0px" y="0px"
	 viewBox="0 0 2245 1080" style="enable-background:new 0 0 2245 1080;" xml:space="preserve">
<style type="text/css">
	.st0{opacity:0.48;fill:url(#SVGID_1_);}
	.st1{opacity:0.48;fill:url(#SVGID_00000044893004901963302160000010496830118359569801_);}
	.st2{fill:#FFFFFF;}
	.st3{opacity:0.17;fill:#FFFFFF;}
</style>
<g id="Layer_1">
	<g>
		<g>
			<g>
				
					<radialGradient id="SVGID_1_" cx="429.1589" cy="26070.4746" r="245.9168" gradientTransform="matrix(1 0 0 0.4423 0 -10845.1309)" gradientUnits="userSpaceOnUse">
					<stop  offset="0.0111" style="stop-color:#FFFFFF"/>
					<stop  offset="1" style="stop-color:#FFFFFF"/>
				</radialGradient>
				<circle class="st0" cx="426.83" cy="541.83" r="141.56"/>
				
					<radialGradient id="SVGID_00000040567691977625773350000011610124825955791496_" cx="432.2919" cy="25743.4434" r="110.3352" gradientTransform="matrix(1 6.000000e-03 -2.847238e-03 0.4692 72.7536 -11481.5781)" gradientUnits="userSpaceOnUse">
					<stop  offset="3.366183e-03" style="stop-color:#FFFFFF"/>
					<stop  offset="1" style="stop-color:#FFFFFF"/>
				</radialGradient>
				
					<circle style="opacity:0.48;fill:url(#SVGID_00000040567691977625773350000011610124825955791496_);" cx="430.37" cy="541.43" r="63.52"/>
			</g>
		</g>
		<circle class="st2" cx="240.6" cy="460.48" r="5.56"/>
		<circle class="st2" cx="167.2" cy="504.41" r="5.56"/>
		<circle class="st2" cx="149.4" cy="522.76" r="5.56"/>
		<circle class="st2" cx="177.21" cy="546.67" r="5.56"/>
		<circle class="st2" cx="169.42" cy="553.9" r="5.56"/>
		<circle class="st2" cx="100.47" cy="528.88" r="5.56"/>
		<circle class="st2" cx="167.75" cy="433.79" r="5.56"/>
		<circle class="st2" cx="189.44" cy="555.57" r="5.56"/>
		<circle class="st2" cx="179.43" cy="526.1" r="5.56"/>
		<circle class="st2" cx="223.92" cy="516.09" r="5.56"/>
		<circle class="st2" cx="151.07" cy="572.25" r="5.56"/>
		<circle class="st2" cx="157.74" cy="607.29" r="5.56"/>
		<circle class="st2" cx="183.88" cy="583.93" r="5.56"/>
		<circle class="st2" cx="169.98" cy="575.03" r="5.56"/>
		<circle class="st2" cx="178.88" cy="563.91" r="5.56"/>
		<circle class="st2" cx="201.68" cy="542.78" r="5.56"/>
		<circle class="st2" cx="194.45" cy="523.32" r="5.56"/>
		<circle class="st2" cx="191.11" cy="508.3" r="5.56"/>
		<circle class="st2" cx="246.72" cy="481.61" r="5.56"/>
		<circle class="st2" cx="210.02" cy="481.61" r="5.56"/>
		<circle class="st2" cx="201.12" cy="475.49" r="5.56"/>
		<circle class="st2" cx="199.45" cy="424.33" r="5.56"/>
		<circle class="st2" cx="242.83" cy="396.53" r="5.56"/>
		<circle class="st2" cx="281.2" cy="405.42" r="5.56"/>
		<circle class="st2" cx="211.69" cy="562.8" r="5.56"/>
		<circle class="st2" cx="154.41" cy="539.44" r="5.56"/>
		<circle class="st2" cx="153.3" cy="550.01" r="5.56"/>
		<circle class="st2" cx="127.16" cy="546.67" r="5.56"/>
		<circle class="st2" cx="119.93" cy="552.79" r="5.56"/>
		<circle class="st2" cx="158.86" cy="496.07" r="5.56"/>
		<circle class="st2" cx="124.38" cy="513.86" r="5.56"/>
		<circle class="st2" cx="192.22" cy="587.82" r="5.56"/>
		<circle class="st2" cx="141.62" cy="517.2" r="5.56"/>
		<circle class="st2" cx="205.57" cy="588.94" r="5.56"/>
		<circle class="st2" cx="200.56" cy="608.96" r="5.56"/>
		<circle class="st2" cx="174.43" cy="611.18" r="5.56"/>
		<circle class="st2" cx="191.11" cy="611.74" r="5.56"/>
		<circle class="st2" cx="223.36" cy="608.4" r="5.56"/>
		<circle class="st2" cx="236.15" cy="616.19" r="5.56"/>
		<circle class="st2" cx="176.65" cy="626.75" r="5.56"/>
		<circle class="st2" cx="139.95" cy="640.65" r="5.56"/>
		<circle class="st2" cx="202.79" cy="661.23" r="5.56"/>
		<circle class="st2" cx="146.62" cy="597.28" r="5.56"/>
		<circle class="st2" cx="232.82" cy="415.43" r="5.56"/>
		<circle class="st2" cx="280.64" cy="390.41" r="5.56"/>
		<circle class="st2" cx="272.86" cy="378.18" r="5.56"/>
		<circle class="st2" cx="269.52" cy="371.5" r="5.56"/>
		<circle class="st2" cx="291.76" cy="356.49" r="5.56"/>
		<circle class="st2" cx="329.02" cy="346.48" r="5.56"/>
		<circle class="st2" cx="308.45" cy="372.06" r="5.56"/>
		<circle class="st2" cx="326.24" cy="363.16" r="5.56"/>
		<circle class="st2" cx="360.72" cy="345.37" r="5.56"/>
		<circle class="st2" cx="393.53" cy="343.7" r="5.56"/>
		<circle class="st2" cx="345.71" cy="373.17" r="5.56"/>
		<circle class="st2" cx="321.79" cy="403.76" r="5.56"/>
		<circle class="st2" cx="339.03" cy="396.53" r="5.56"/>
		<circle class="st2" cx="354.6" cy="397.08" r="5.56"/>
		<circle class="st2" cx="420.78" cy="371.5" r="5.56"/>
		<circle class="st2" cx="395.75" cy="367.05" r="5.56"/>
		<circle class="st2" cx="465.27" cy="329.79" r="5.56"/>
		<circle class="st2" cx="475.28" cy="351.48" r="5.56"/>
		<circle class="st2" cx="483.06" cy="338.69" r="5.56"/>
		<circle class="st2" cx="544.79" cy="333.69" r="5.56"/>
		<circle class="st2" cx="602.07" cy="370.39" r="5.56"/>
		<circle class="st2" cx="591.5" cy="379.29" r="5.56"/>
		<circle class="st2" cx="535.89" cy="385.4" r="5.56"/>
		<circle class="st2" cx="524.21" cy="368.17" r="5.56"/>
		<circle class="st2" cx="504.19" cy="377.06" r="5.56"/>
		<circle class="st2" cx="499.19" cy="390.97" r="5.56"/>
		<circle class="st2" cx="590.95" cy="393.19" r="5.56"/>
		<circle class="st2" cx="654.9" cy="402.64" r="5.56"/>
		<circle class="st2" cx="571.48" cy="422.11" r="5.56"/>
		<circle class="st2" cx="569.26" cy="446.02" r="5.56"/>
		<circle class="st2" cx="721.63" cy="469.38" r="5.56"/>
		<circle class="st2" cx="718.29" cy="479.94" r="5.56"/>
		<circle class="st2" cx="672.69" cy="547.23" r="5.56"/>
		<circle class="st2" cx="668.8" cy="493.29" r="5.56"/>
		<circle class="st2" cx="711.62" cy="549.45" r="5.56"/>
		<circle class="st2" cx="760" cy="573.37" r="5.56"/>
		<circle class="st2" cx="732.19" cy="590.6" r="5.56"/>
		<circle class="st2" cx="751.1" cy="603.95" r="5.56"/>
		<circle class="st2" cx="701.05" cy="618.41" r="5.56"/>
		<circle class="st2" cx="677.14" cy="563.36" r="5.56"/>
		<circle class="st2" cx="580.38" cy="620.08" r="5.56"/>
		<circle class="st2" cx="623.75" cy="624.53" r="5.56"/>
		<circle class="st2" cx="671.58" cy="585.6" r="5.56"/>
		<circle class="st2" cx="713.29" cy="502.19" r="5.56"/>
		<circle class="st2" cx="663.24" cy="519.42" r="5.56"/>
		<circle class="st2" cx="644.33" cy="472.16" r="5.56"/>
		<circle class="st2" cx="584.83" cy="408.76" r="5.56"/>
		<circle class="st2" cx="583.72" cy="447.13" r="5.56"/>
		<circle class="st2" cx="552.02" cy="392.63" r="5.56"/>
		<circle class="st2" cx="597.06" cy="623.41" r="5.56"/>
		<circle class="st2" cx="561.47" cy="661.23" r="5.56"/>
		<circle class="st2" cx="622.64" cy="671.24" r="5.56"/>
		<circle class="st2" cx="679.36" cy="656.22" r="5.56"/>
		<circle class="st2" cx="657.68" cy="627.31" r="5.56"/>
		<circle class="st2" cx="705.5" cy="561.13" r="5.56"/>
		<circle class="st2" cx="708.84" cy="532.21" r="5.56"/>
		<circle class="st2" cx="684.93" cy="515.53" r="5.56"/>
		<circle class="st2" cx="702.72" cy="494.96" r="5.56"/>
		<circle class="st2" cx="602.62" cy="455.47" r="5.56"/>
		<circle class="st2" cx="601.51" cy="424.89" r="5.56"/>
		<circle class="st2" cx="593.73" cy="427.67" r="5.56"/>
		<circle class="st2" cx="583.16" cy="680.14" r="5.56"/>
		<circle class="st2" cx="602.62" cy="658.45" r="5.56"/>
		<circle class="st2" cx="387.41" cy="747.98" r="5.56"/>
		<circle class="st2" cx="475.28" cy="742.98" r="5.56"/>
		<circle class="st2" cx="550.35" cy="727.96" r="5.56"/>
		<circle class="st2" cx="430.79" cy="750.21" r="5.56"/>
		<circle class="st2" cx="370.17" cy="703.49" r="5.56"/>
		<circle class="st2" cx="357.38" cy="696.26" r="5.56"/>
		<circle class="st2" cx="285.65" cy="647.88" r="5.56"/>
		<circle class="st2" cx="311.78" cy="653.44" r="5.56"/>
		<circle class="st2" cx="269.52" cy="666.23" r="5.56"/>
		<circle class="st2" cx="329.02" cy="669.57" r="5.56"/>
		<circle class="st2" cx="537.56" cy="677.91" r="5.56"/>
		<circle class="st2" cx="578.71" cy="669.01" r="5.56"/>
		<circle class="st2" cx="639.33" cy="568.36" r="5.56"/>
		<circle class="st2" cx="649.89" cy="597.28" r="5.56"/>
		<circle class="st2" cx="624.87" cy="466.04" r="5.56"/>
		<circle class="st2" cx="478.06" cy="387.63" r="5.56"/>
		<circle class="st2" cx="244.5" cy="664.57" r="5.56"/>
		<circle class="st2" cx="256.73" cy="514.42" r="5.56"/>
		<circle class="st2" cx="611.52" cy="487.17" r="5.56"/>
		<circle class="st2" cx="593.73" cy="471.04" r="5.56"/>
		<polygon class="st3" points="364.09,515.09 383.9,488.16 428.33,472.58 		"/>
		<polygon class="st3" points="490.64,509.26 465.55,482.61 430.16,474.09 		"/>
		<polygon class="st3" points="383.9,488.16 458.29,490.74 426.88,472.35 		"/>
		<path class="st3" d="M364.64,516.67l-3.42,29.47c0,0,2.85,21.52,5.84,22.74C370.05,570.1,364.64,516.67,364.64,516.67z"/>
		<polygon class="st3" points="392.55,599.53 434.31,606.92 367.06,568.87 		"/>
		<polygon class="st3" points="482.5,582.57 434.31,606.92 392.55,599.53 		"/>
		<polygon class="st3" points="484.26,582.39 494.1,559.94 490.64,509.26 		"/>
		<polygon class="st3" points="465.55,482.61 490.64,509.26 496.42,547.02 		"/>
		<polygon class="st3" points="382.74,507.78 364.64,516.67 367.06,568.87 		"/>
		<polygon class="st3" points="392.55,599.53 364.84,519.02 367.06,568.87 		"/>
		<polygon class="st3" points="167.2,499.4 359.61,343.7 518.65,342.59 633.96,446.61 685.48,517.2 505.31,389.3 367.39,397.08 		
			"/>
		<polygon class="st3" points="188.24,556.2 276.19,666.23 421.74,727.92 487.51,720.73 648.2,600.45 515.32,671.8 368.51,687.37 		
			"/>
		<path class="st2" d="M579.71,554.53l0.25-33l-8.95-7.56l3.11-11.18l0.77,0.86l-0.61-1.46l0-0.01l-0.05-0.09l-8.18-19.67l1.34-0.06
			l-2.71-3.21l-8.06-19.37l0.89,0.56l-1.26-1.43l-0.03-0.08l-0.05-0.02l-21.01-23.96l-0.05-0.05l-7.36-2.99l-2.31-6.12l-2.41,4.21
			l-7.31-2.97l-5.39-11.47l-0.18-0.38l-6.57,6.92l-1.41-0.57l-3.61-15.58l-0.06-0.25l-0.25,0.02c-0.23,0.02-0.61,0.03-1.11,0.03
			c-1.69,0-4.75-0.12-8.52-0.31l-3.12-4.45l-0.13-0.18l-10.01,3.88c-0.14-0.01-0.27-0.02-0.41-0.03l-9.81-3.91l1.15-6.65
			l-15.62,0.87l-0.21-0.08l0.09,0.09l-9.46,0.53l-2.55-3.73l-0.11-0.16l-4.92,1.08l-2.2-1.92l-6.64,3.86l-9.92,2.18l-17.09-3.63
			l1.38,1.47l-9.84,6.89l-21.43,3.31l-0.76,3.24l-1.91,0.11l2.26-3.89l-4.44,4.02l-0.96,0.06l-0.01,0.57l0.25,0.03l-18.29,16.54
			l5.8-10.88l-22.34,15.7l-0.09,0.06l-1.23,4.98c-4.72,2.31-8.1,3.9-8.98,4.15l-0.24,0.07l2.38,16.66l-0.74,0.68l-9.08-4.3
			l-0.94,13.48l-5.58,5.11l-3.9-3.17l0.06,6.69l-5.73,5.25l-11.01,30.04l-0.04,0.04l0,0.09l-0.63,1.71l0.6-0.79l-0.52,21l-1.36,3.98
			l1.28-0.43l-0.53,21.3l-0.01,0.1l0.01,0.01l-0.04,1.58l0.41-1.08l6.94,9.3l-5.54,10.16l-0.06,0.12l12.16,30.68l0.03,0.16
			l0.04,0.01l0.4,1.01l0.07-0.89l11.21,2.74l-2.57,12.07l8.1,3.55l2.23,8.68l-1.08,0.36l1.33,0.62l0.44,1.7l0.18,0.71l0.92-1.69
			l8.43,3.9l2.03,8.6l12.34-0.35l0.68,11.52l-0.89-0.09l0.92,0.57l0,0.04l0.15,0.05l27.87,17.41l0.11,0.07l11.13-3.66l7.9,8.5
			l-1.13,0.21l1.56,0.25l0.01,0.01l0.1,0.01l21.04,3.32l-0.65,1.18l4.15-0.63l20.73,3.27l-0.94,0.47l1.88-0.32l0.09,0.01l0.04-0.03
			l31.41-5.36l0.07-0.01l6.4-4.71l5.82,1.12l0.6,0.12l-2.33-4.25l6.36-4.68l12.59,1.41l0.42,0.05l-2.46-9.22l1.23-0.9l15.16,5.08
			l0.24,0.08l0.11-0.23c0.48-0.96,2.52-4.04,5.28-8.06l5.43-0.33l0.23-0.01l1.93-10.56c0.08-0.11,0.16-0.22,0.23-0.33l8.47-6.31
			l4.79,4.22l0.27,0.24l7.43-13.77l0.18-0.13l-0.12,0.03l6.45-11.96l7.01-2.19l0.2-0.06l0.27-11.56l0.08-0.19l0.59-1.09l-0.19,0.13
			l6.61-15.73l4.98,6.76l-0.28-10.25l2.56,2.16l-1.47-12.37l6.1-6.07l0.17-0.17l-2.24-3.43l4-9.53l0.08-0.18l-1.89-1.87l2.76-1.93
			l0.39,0.8l0.01-1.08l0.03-0.02L579.71,554.53z M579.16,551.91l-7.84-36.93l8.07,6.83L579.16,551.91z M574.94,557.34l-1.29,0.9
			l1.47-1.92l0.23,0.23L574.94,557.34z M566.64,585.41l-1.94-1.64l3.74-3.72l0.03,1L566.64,585.41z M568.51,582.44l0.13,4.65
			l-1.54-1.3L568.51,582.44z M548.29,614.53l4.61-14.69l4.4-8.23l-0.4,16.75L548.29,614.53z M556.43,609.39l-6.85,12.69l-4.07,1.27
			l2.48-7.91L556.43,609.39z M523.87,636.9l-2.59-2.28l17.11-12.27l-2.37,7.84L523.87,636.9z M528.41,640.9l-2.41-2.12l4.61-0.96
			C529.91,638.78,529.17,639.82,528.41,640.9z M531.43,637.64l9.78-2.05l-10.2,7.6l-2.17-1.91
			C529.76,640,530.63,638.76,531.43,637.64z M442.98,682.41l-20.88,3.15l-9.25-5.17l0.81-1.47l17.71-3.3l13.61,5.09L442.98,682.41z
			 M445.59,680.94l2.06,0.77l-3.6,0.54L445.59,680.94z M405.77,677.48l-14.5-6.7l2.03-0.67l9.29,5.2L405.77,677.48z M339.5,646.85
			l-0.51-8.75l5.3,2.32l7.34,7.53l-9.18,0.26L339.5,646.85z M341.15,648.25l-1.57,0.04l-0.05-0.79L341.15,648.25z M307.97,607.52
			l1.91-8.98l7.28,10.27l0.98,4.14l-9.36-2.29L307.97,607.52z M308.14,610.51l-0.77-0.19l0.33-1.53L308.14,610.51z M294.48,500.82
			l2.55,14.3l-6.44,16.82l-1.59,0.53l-3.42-10.03l6.86-19.98L294.48,500.82z M292.8,501.44l1.18-3.44l0.39,2.17L292.8,501.44z
			 M419.67,397.33l-1.89,1.09l0.06-0.81L419.67,397.33z M462.91,410.38l-0.59,3.41l-12.1-5.08l-2.89-4.23l3.51-0.92L462.91,410.38z
			 M463.94,404.42l-0.55,3.17l-3.24-3.42C461.34,404.24,462.62,404.33,463.94,404.42z M459.57,403.55l-6.86-7.26l11.82,4.71
			l-0.49,2.85C462.46,403.74,460.96,403.64,459.57,403.55z M540.98,451.87l2.34,2.78l-1.92-0.62L540.98,451.87z M544.02,455.48
			l13.61,16.15l0.43,10.59l-1.67,0.08l-12.08-13.36l-2.78-14.26L544.02,455.48z M518.84,639.68l-6.36,1.33l-0.17,0.04l-0.8,2.68
			l-30.16,16.68l0.52,0.17l-12.34,3.65l15.23-0.93l-41.82,5.58l13.34,1.49l-1.95,0.36l-36.22-0.71l-0.19-0.07l-4.64,8.43l-2.98,0.56
			l-7.41-4.14l-7.77-5.3l7.06-2.33l1.15,1.22l-0.67-1.38l0.99-0.32l-1.2-0.12l-22.75-47.05l13.16-19.48l0.17,0.21l0.06,0.88
			l0.27-0.49l0.72,0.85l-0.46-1.33l2.15-3.94l36.91,12.15l-0.73,1.15l1.33-1.06l49.12-25.13l-0.18,1.65l0.76-1.94l1.27-0.65
			l-1.06,0.11l7.87-20.14l3.04-2.42l-2.18,0.24l0.37-0.94c23.67,6.28,53.02,14.25,59.85,16.96L543,605.35l0.74-0.74l-5.09,16.83
			l-18.31,13.14l2.98,2.63L518.84,639.68z M523.79,637.61l0.96,0.84l-3.98,0.83L523.79,637.61z M517.13,640.63l-4.89,2.7l0.53-1.79
			L517.13,640.63z M521.79,650.07l-14.84,11.06l2.39-8.06l12.58-3.72L521.79,650.07z M508.61,653.52l-0.12-0.19l0.19-0.06
			L508.61,653.52z M472.08,671.24L472,671.1l-5.11-0.1l-8.6-0.96l0.03-0.03l-0.11,0.02l-10.55-1.18l40.13-5.36l-15.69,7.82
			L472.08,671.24z M460.62,670.88l-3.23-0.06l0.31-0.26L460.62,670.88z M489.27,662.46l-5.47-1.83l23.97-7.08l-17.81,8.87
			L489.27,662.46z M487.73,662.55l-13.16,0.8l8.27-2.44L487.73,662.55z M482.84,660.31l-0.06-0.02l28.5-15.76l-2.4,8.09
			L482.84,660.31z M418.19,670.69l12.13,4.54l-16.3,3.04L418.19,670.69z M421.38,671.27l14.83,2.86l-4.79,0.89L421.38,671.27z
			 M421.41,670.68l30.12,0.59l-13.77,2.57L421.41,670.68z M412.92,679.05l-0.58,1.05l-1.26-0.71L412.92,679.05z M354.84,647.93
			l-11.17-12.83l44,30.02l-2.54-0.25L354.84,647.93z M383.7,664.73l-6.98-0.69l-12.1-5.59l-8.5-9.15L383.7,664.73z M354.01,647.89
			l-1.59,0.05l-6.72-6.89l1.84,0.8l-7.19-9.02l1.44,0.98l11.56,13.28l-0.15-0.08L354.01,647.89z M338.8,634.8l4.42,4.53l-4.26-1.87
			L338.8,634.8z M338.13,633.29l0.23,3.91l-12.26-5.37l8.61-2.83l4.01,2.73l6.9,8.66l-1-0.44L338.13,633.29z M321.87,614.46
			l-4.17-5.89l-0.78-3.32l5.4,6.2l3.17,7.14l-3.78,6.93l-2.78-11.79L321.87,614.46z M318.77,613.11l-0.72-3.04l2.46,3.46
			L318.77,613.11z M299.27,562.54l0.21-2.55l21.6,48.69l-10.61-13.3L299.27,562.54z M309.36,593.89l-7.47-10.01l-3.32-12.91
			l0.58-6.99L309.36,593.89z M291.04,532.41l9.13-3.04l-0.04-0.2l5.83-35.75l0.71-1.85l-0.93,13.39l9.08-27.95l0.85,0.4l-0.5,2.02
			l0.96-1.81l66.11,31.11l-35.48,1.16l17.37,6.09l0.04,0.89l-0.12,0.05l0.13,0.22l1.1,24.78c-2.29,2.24-3.86,3.61-4.33,3.71
			c-0.35,0.07-0.41,0.3-0.42,0.39c-0.02,0.29-0.05,0.72,5.07,3.05l0.89,19.94l0,0.1l19.35,22.71l-0.71,0.62l-0.69,0.07l0.44,0.15
			l-13.27,11.47l7.43,15.37l-9.18,13.58l31.65,33.42l-12.65-1.25l-46.7-31.86l-16.54-18.99l-3.13-3.92l-22.93-51.67l1.23-14.81
			l-4.3,7.89l-3.82-8.6l-2.74-8.03L291.04,532.41z M289.66,534.39l-0.47-1.37l1.14-0.38L289.66,534.39z M299.52,525.73l-1.88-10.55
			l1.74-4.55L299.52,525.73z M299.94,509.16l5.01-13.08l-4.85,29.73L299.94,509.16z M299.51,528.98l-8.2,2.73l5.93-15.49
			L299.51,528.98z M308.71,476.57l9.75-12.68l-4.14,12.76l-0.38-0.07l0.35,0.16l-7.65,23.55l0.74-10.59l0.04-0.1l-0.03,0.03
			l0.6-8.63L308.71,476.57z M320.99,468.63l42.25-44.47l-1.71,7.3l17.18-9.89l0.1,0.29l0.46-0.61l15.52-8.93l16.2,1.7l0.05,0.01
			l5.06-1.33l0.03,0.04l4.27,43.88l-35.87,31.83l22.4,1.15c-3.99,2.93-20.35,15.04-23.25,18.6l-24.26-23.14l29.04,5.04l-42.58-17.16
			l11.77,11.23l-41.2-7.15l4.53-8.51L320.99,468.63z M403.48,406.39l0.37,0.06l-9.19,5.29l-7.6-0.8l2.82-3.73L403.48,406.39z
			 M390.33,406.6l1.51-2l8.93,1.37L390.33,406.6z M449.84,409.17l2.88,4.21l-24.74-3.81l14.03-3.69L449.84,409.17z M442.92,405.64
			l3.82-1l2.5,3.66L442.92,405.64z M467.91,413.21l4.58,4.85l2.71-0.73l30,16.97l-0.12-0.54l9.57,8.61l-8.76-12.48l26.64,32.71
			l-5.71-12.15l1.33,1.47l18.15,30.9l-35.55,4.29c9.58-5.77,16.01-9.62,16.01-9.62l-0.28-0.51l-24.05,11.71l5.7-0.69
			c-6.89,4.15-15.14,9.12-23.68,14.28l-12.71-6.75c-3.18-7.72-5.39-13.05-5.45-13.2l-0.18-0.55l-0.22,0.32l-35.14-8.78l0.71-23.33
			l9.94,24.13l-9.64-52.69l-0.79,25.79l-0.02,0.02l-14.28-34.67l0-0.02l9.88-2.6l27.37,4.21l-3.13-4.57l11.95,5.02l0.68-3.92
			L467.91,413.21z M463.55,410.08l0.22-1.26l2.8,2.96L463.55,410.08z M469.61,414.17l4.86,2.75l-1.81,0.48L469.61,414.17z
			 M485.05,414.69l-0.1,0.2l-0.15-0.13L485.05,414.69z M484.29,414.29l-9.75-8.77l0.67-0.26l17.19,6.86L484.29,414.29z
			 M521.78,441.08l3.68,7.83l-0.04-0.01l0.07,0.08l4.51,9.61l-25.57-31.4l14.88,9.28l-0.12,0.21L521.78,441.08z M524.96,446.5
			l1.63,2.77l-0.38-0.12L524.96,446.5z M502.79,426.49l1.3,5.62l-18.59-16.72l16.89,10.53L502.79,426.49z M503.68,427.75l7.57,10.8
			l-6.41-5.76L503.68,427.75z M504.32,433.09l0.01,0.06l-28.35-16.04l8.15-2.18L504.32,433.09z M558.18,485.14l0.35,8.48l-0.45,9.4
			l-6.86-5.8l6.5,13.36L555,567.06l-2.69,8.57l-34.22-17.86L493.55,556l0.94-2.42c0.07,0.21,0.15,0.41,0.21,0.6
			c0.44,1.89,0.47,1.89,0.73,1.89h0.12l0.18-0.24v-0.12c0-0.15-0.06-0.47-0.48-1.7c-0.1-0.43-0.22-0.95-0.34-1.52l2.47-6.32
			l2.04-0.17l-1.99-0.36l-6.48-36.54c27.92-12.86,54.7-25.23,55.89-25.78l9.3-0.45L558.18,485.14z M556.89,482.86l1.2-0.06
			l0.06,1.44L556.89,482.86z M567.88,562.27l-9.17,6.4l0.08-2.7l3.68-14.6l5.03,7.69L567.88,562.27z M568.2,560.14l0.85,1.31
			l-0.65,0.45L568.2,560.14z M557.87,577.83l-0.08,0.1l-0.71-0.6l0.8,0.08L557.87,577.83z M555.27,576.56l-1.42-0.15
			c-0.14-0.12-0.4-0.29-1-0.55l2.04-6.53l-0.31,6.49l-0.01,0.14L555.27,576.56z M552.66,576.46l0.86,0.45l2.48,3.36l-7.65,9.95
			L552.66,576.46z M554.33,577.04l1.72,0.18l1.38,1.17l-1.08,1.4L554.33,577.04z M557.84,578.81l-0.08,2.87l-1.04-1.41
			L557.84,578.81z M556.29,576.66l-1.13-0.96l0.41-8.55l2.86-9.13l-0.22,7.86l-1.17,4.66l1.06-0.74l-0.2,7.03L556.29,576.66z
			 M557.97,569.18l0.16-0.64l-0.02,0.53L557.97,569.18z M558.86,563.3l0.21-7.31l1.77-5.64l0.01,0.17l0.32-1.15l0.87,1.33
			L558.86,563.3z M560.77,548.65l-1.64,5.23l0.37-13.05l0.99,0.98L560.77,548.65z M561.37,548.64l1.3-4.67l0.85,0.85l-1.3,5.14
			L561.37,548.64z M561.27,546.84l-0.18-4.44l1.11,1.1L561.27,546.84z M561.06,541.55l-1.07-26.29l3.07,6.31l1.57,13.24l-2.24,8.06
			L561.06,541.55z M560.45,540.95l-1.49-1.48l-0.47,16.43l-2.81,8.98l2.56-53.21l1.12,2.29L560.45,540.95z M558.29,510.46l0.3-6.24
			l0.37,0.32l0.33,7.98L558.29,510.46z M557.77,509.38l-4.84-9.95l5.11,4.32L557.77,509.38z M558.63,503.49l0.16-3.35l0.15,3.61
			L558.63,503.49z M490.59,562l-5.73,4.57l0.57-5.11l5.61-0.61L490.59,562z M491.68,560.78l0.51-0.06l-0.7,0.56L491.68,560.78z
			 M372.32,604.26l13.19-11.41l1.68,0.55l5.28,6.2l-13.06,19.33L372.32,604.26z M401.2,665.3l-30.59-32.3l8.73-12.92L401.2,665.3z
			 M365.87,542.13c1.5-1.46,3.26-3.25,5.18-5.23l5.63,16.21c-3.94-1.6-7.68-3.16-10.52-4.43L365.87,542.13z M365.57,548.41
			c-2.29-1.04-3.88-1.85-4.35-2.27c0.65-0.28,2.11-1.55,4.1-3.46L365.57,548.41z M364.1,515.36l-14.24-4.99l32.11-1.05l-15.88,6.74
			l-1.89-0.66l-0.1-0.3L364.1,515.36z M383.18,508.53l-65.12-30.65l40.33,7L383.18,508.53z M348.44,474.6l34.74,14l-24.53-4.26
			L348.44,474.6z M431.58,446.69l0.61-19.81l7.67,41.95l-8.34-20.25l0.03-1.01l0.91-1.65L431.58,446.69z M430.94,448.68l-0.75,24.5
			l-3.32-0.83l1.7,0.9c-0.74,0.61-2.75,2.27-5.55,4.56l-1.22-12.51L430.94,448.68L430.94,448.68z M509.54,487.84l35.45-4.28
			c-6.34,2.93-29.8,13.76-54.14,24.97l-0.07-0.42l-0.05,0.48c-1.45,0.67-2.9,1.34-4.35,2c-0.83-4.16-1.42-7.12-1.56-7.85
			C492.38,498.17,500.63,493.2,509.54,487.84z M509.35,487.28l-3.57,0.43l15.04-7.33C517.88,482.14,513.95,484.51,509.35,487.28z
			 M447.55,586.11l14.03-22.04l23.26-2.54l-0.62,5.56l-21.97,17.53L447.55,586.11z M461.41,585.28l-27.11,21.63l12.85-20.19
			L461.41,585.28z M424.94,588.39l-9.71-21.46l0.13-0.19l0.97,0.22l0.17,0.04l12.35-14.59l2.26,35.36L424.94,588.39z M431.15,588.35
			l1.02,16.01l-6.97-15.41L431.15,588.35z M422.56,478.94l0.09,0.9l-22.14,24.27l7.18-13.07
			C413.13,486.64,418.52,482.24,422.56,478.94z M408.41,489.7l12.91-23.51l1.17,12.05C418.69,481.36,413.62,485.5,408.41,489.7z
			 M423.1,478.5c1.16-0.95,2.2-1.8,3.07-2.52l-2.99,3.28L423.1,478.5z M422.72,480.61l1.79,18.36c-11.03,2.9-21.15,5.58-24.5,6.54
			L422.72,480.61z M461.59,489.29l4.34-6.21l3.61,11.28l-8.38-4.45l0.2-0.28l0.86-0.5L461.59,489.29z M470.31,496.77l-41.09,38.9
			l31.61-45.29l8.96,4.76L470.31,496.77z M492.94,545.96c-0.23,0.02-0.46,0.04-0.7,0.06c-0.1-0.25-0.2-0.5-0.3-0.76l0.88,0.16
			C492.86,545.6,492.9,545.78,492.94,545.96z M493.44,545.53l1.51,0.27c-0.42,0.03-0.9,0.07-1.43,0.12
			C493.49,545.79,493.46,545.65,493.44,545.53z M493.06,546.53c0.26,1.27,0.51,2.45,0.74,3.51c-0.4-1.04-0.85-2.2-1.34-3.46
			C492.66,546.56,492.86,546.55,493.06,546.53z M431.06,552.1l45.19,3.23l-14.87,8.14L431.06,552.1z M415.47,566.18l-0.65-0.14
			l-1.15-2.54l4.92-9.01l9.71-2.32l-12.01,14.2l-0.58-0.13l0.42-0.62L415.47,566.18z M389.96,559.54l-0.46-0.77
			c0.14,0.06,0.24,0.09,0.25,0.1l0.12,0.05L389.96,559.54z M395.7,527.04l0.74,0.26l-0.01,0.1l0.11-0.07l0.16,0.06l10.32,22.81
			l-16.36,10.23l-0.36-2.69L395.7,527.04z M390.05,555.84l-4.31-32.29l9.4,3.29L390.05,555.84z M397.42,518.47l-0.87,7.85
			l-0.51-0.39l0.33,0.73l-0.57-0.2l1.43-8.12L397.42,518.47z M397.34,517.72l0.46-2.63l-0.3,2.73L397.34,517.72z M428.13,536.23
			l-0.84,1.2l-22.57-14.85l20.9-12.16L428.13,536.23z M426.17,510.1l2.94-1.71l-0.75,24.34L426.17,510.1z M456.86,548.93
			c-0.19,0.02-0.37,0.03-0.56,0.05l-15.6-6.18c2.74-1.82,5.55-3.64,7.94-5.16L456.86,548.93z M411.97,565.4l-20.25-4.5l18.18-4.34
			l3.13,6.91L411.97,565.4z M413.33,564.12l0.79,1.75l-1.56-0.35L413.33,564.12z M392.08,560.22l15.18-9.49l2.39,5.29L392.08,560.22
			z M410.47,556.42l7.37-1.76l-4.46,8.17L410.47,556.42z M410.23,555.88l-2.47-5.46l10.6-6.63l3.82,2.93l-3.96,7.25L410.23,555.88z
			 M426.7,537.9l-8.31,5.19l-19.41-14.91L426.7,537.9z M417.87,543.42l-10.35,6.47l-10-22.1L417.87,543.42z M418.88,543.47
			l7.44-4.65l-0.81,1.16l0.72-0.69l-3.78,6.92L418.88,543.47z M427.49,538.19l11.95,4.73c-4.96,3.31-9.54,6.57-10.77,8.07
			l-5.76-4.42L427.49,538.19z M429.16,551.36l-0.08-0.07c0.87-1.13,5.75-4.57,11.04-8.11l14.89,5.9
			c-11.74,0.98-22.13,1.88-25.22,2.21l0.09-0.11L429.16,551.36z M456.21,549.57l0.14,0.06l-0.64-0.01
			C455.88,549.59,456.04,549.58,456.21,549.57z M440.03,542.53l-11.25-4.46l18.9-0.51C445.35,539.05,442.66,540.79,440.03,542.53z
			 M425.25,536.78l-27.73-9.72l-0.22-0.17l6.86-3.99L425.25,536.78z M397.13,526.32l0.83-7.5l5.66,3.72L397.13,526.32z
			 M390.77,561.28l20.91,4.65l-3.66,6.69l-15.46,13.37l-1.76-23.88l0.09,0.16L390.77,561.28z M407.24,574.06l-9.33,17.07l-4.93,0.5
			l-0.36-4.92L407.24,574.06z M408.49,572.98l4.72-4.09l-13.04,19.31L408.49,572.98z M409.27,571.54l3-5.48l2.15,0.48l0.18,0.4
			L409.27,571.54z M418.97,553.8l3.67-6.72l5.52,4.24l-1.03-0.07l0.98,0.37L418.97,553.8z M455.54,549.62l2.31,0.6l0.91,0.36
			l-0.11-0.15c2.07,0.53,8.13,2.1,16.28,4.23l-42.53-3.04C437.06,551.19,445.88,550.43,455.54,549.62z M460.42,550.28l24.14,0.5
			l-7.16,3.92C469.73,552.7,463.6,551.11,460.42,550.28z M458.1,549.66l-0.17-0.23c10.11-0.84,20.83-1.73,28.52-2.35l-0.35,3.17
			L458.1,549.66z M457.53,548.88l-8.16-11.22l37.38,6.67l-0.24,2.15C478.73,547.12,467.79,548.02,457.53,548.88z M487.32,544.44
			l3.96,0.71c0.12,0.31,0.25,0.62,0.36,0.92c-1.33,0.11-2.86,0.23-4.55,0.37L487.32,544.44z M487.38,543.86l0.74-6.66
			c1.05,2.63,2.03,5.09,2.91,7.31L487.38,543.86z M491.69,544.63c-1.02-2.59-2.18-5.51-3.44-8.64l0.93-8.39
			c1.22,6.04,2.47,12.19,3.51,17.21L491.69,544.63z M487.8,534.86c-2.56-6.37-5.47-13.53-8.31-20.47c2.14-0.98,4.3-1.98,6.45-2.97
			c0.8,4.04,1.81,9.08,2.87,14.32L487.8,534.86z M487.67,536.07l-0.85,7.69l-37.93-6.77l-0.02-0.03l-0.12,0l-0.08-0.01l-0.03,0.02
			l-19.74,0.53c5.81-2.54,27.13-12.31,50.08-22.87C481.95,521.93,485.01,529.46,487.67,536.07z M429.44,536.62
			c5.41-3.52,21.62-13.46,46.78-28.68c0.83,2.01,1.67,4.08,2.52,6.16C456.76,524.21,436.25,533.6,429.44,536.62z M428.87,535.16
			l0.83-27.12l30.47-17.73L428.87,535.16z M429.72,507.36l0.28-9.23c11.86-3.11,23.66-6.19,28.29-7.39L429.72,507.36z M429.13,507.7
			l-3.03,1.76l-0.98-10.06c1.42-0.37,2.86-0.75,4.29-1.13L429.13,507.7z M425.56,509.79l-21.38,12.44l-6.14-4.04l1.32-11.88
			c2.04-0.63,13.07-3.56,25.21-6.75L425.56,509.79z M398.63,507.03l-1.82,10.35l-4.72-3.11
			C395.02,511.04,397.37,508.43,398.63,507.03z M396.7,518l-1.45,8.27l-9.59-3.36l-0.19-1.4c2.22-2.41,4.33-4.73,6.22-6.81
			L396.7,518z M385.05,522.69l-0.5-0.18c0.14-0.15,0.28-0.3,0.42-0.45L385.05,522.69z M385.37,520.76l-1.49-11.2l7.33,4.82
			C389.29,516.49,387.33,518.63,385.37,520.76z M384.86,521.32c-0.3,0.33-0.61,0.66-0.91,0.99l-17.05-5.97l16.38-6.95L384.86,521.32
			z M383.52,522.77c-3.26,3.53-6.46,6.96-9.38,10.05l-9.26-15.63l1.23-0.52L383.52,522.77z M384.12,522.98l1.01,0.35l4.58,34.39
			l-0.08,0.48c-0.2-0.08-0.4-0.15-0.6-0.23l-14.58-24.63C377.58,530.05,380.92,526.46,384.12,522.98z M388.16,557.64
			c-3.33-1.28-7.11-2.77-10.77-4.25l-5.89-16.96c0.82-0.85,1.67-1.74,2.54-2.65L388.16,557.64z M388.64,558.44l1.35,2.28l-0.84,0.2
			l1.01,0.23l1.86,25.32l-2.42,2.1l-11.96-34.44C382.32,555.99,386.67,557.68,388.64,558.44z M392.07,587.18l0.33,4.51l-1.66,0.17
			l-0.94-2.71L392.07,587.18z M392.45,592.26l0.17,2.32l-1.05-0.34l-0.63-1.82L392.45,592.26z M390.88,594.01l-3.35-1.1l-0.11-0.13
			l2.93-0.3L390.88,594.01z M391.12,594.69l1.42,4.1l-4.29-5.04L391.12,594.69z M391.81,594.92l0.86,0.28l0.2,2.77L391.81,594.92z
			 M393.26,595.4l1.68,0.55l-1.48,2.19L393.26,595.4z M395.27,595.45l-2.06-0.68l-0.19-2.57l4.56-0.46l-0.85,1.55L395.27,595.45z
			 M414.85,567.5l9.49,20.96l-25.38,2.57L414.85,567.5z M429.41,552.1l31.56,11.84l-14.15,22.24l-15.14,1.53L429.41,552.1z
			 M462.82,563.35l14.5-7.94l0.65,0.05c2.3,0.6,4.76,1.25,7.33,1.93l-0.4,3.56L462.82,563.35z M481.09,555.68l4.36,0.31l-0.09,0.81
			C483.9,556.42,482.47,556.04,481.09,555.68z M478.25,554.9l7.79-4.27l-0.53,4.79L478.25,554.9z M486.66,550.29l0.07-0.04l-0.06,0
			l0.36-3.23c1.81-0.15,3.43-0.28,4.83-0.39c0.97,2.48,1.77,4.57,2.34,6.13l-1.25,3.2l-6.86-0.49L486.66,550.29z M493.64,546.48
			c1.48-0.12,2.55-0.21,3.11-0.25l-2.05,5.25C494.39,550.08,494.03,548.39,493.64,546.48z M493.31,544.92
			c-1.15-5.54-2.57-12.51-3.91-19.2l1.51-13.56l5.93,33.4L493.31,544.92z M489.02,523.86c-0.94-4.65-1.82-9.08-2.54-12.68
			c1.39-0.64,2.78-1.28,4.16-1.92L489.02,523.86z M485.83,510.84c-2.19,1.01-4.38,2.02-6.56,3.02c-0.86-2.11-1.72-4.19-2.55-6.22
			c2.44-1.47,4.96-3,7.56-4.57C484.48,504.04,485.04,506.91,485.83,510.84z M476.5,507.09c-1.57-3.83-3.07-7.48-4.41-10.72
			l11.79,6.26C481.44,504.11,478.97,505.6,476.5,507.09z M476,507.39c-6.35,3.84-12.68,7.68-18.57,11.26
			c-15.56,9.47-23.2,14.2-26.94,16.61l40.35-38.2l0.13-0.12l-0.45-1.41l0.77,0.41C472.71,499.37,474.31,503.27,476,507.39z
			 M470.27,494.74l-1.84-5.75c0.73,1.76,1.58,3.82,2.52,6.11L470.27,494.74z M460.73,489.51l-0.21,0.06l-29.2-15.52l34.24,8.56
			L460.73,489.51z M459.69,489.78c-2.86,0.74-16.2,4.21-29.67,7.75l0.71-23.13L459.69,489.78z M429.44,497.68
			c-1.46,0.38-2.92,0.77-4.37,1.15l-1.83-18.79l5.91-6.48l1.01,0.53L429.44,497.68z M430.35,448.55l-8.63,15.73l-0.72-7.42
			L430.35,448.55z M420.92,456.15l-4.05-41.62l13.64,33.11L420.92,456.15z M421.22,465.18l-13.13,23.91l-22.14-1.13l34.5-30.62
			L421.22,465.18z M407.23,490.66c-16.36,13.2-21.59,16.99-23.14,17.89c2.15-2.68,14.88-12.41,23.66-18.84L407.23,490.66z
			 M406.5,491.99l-7.61,13.86l-0.07,0.02l-0.01,0.09c-2.25,2.51-4.69,5.21-7.21,7.99l-6.14-4.04l-0.98-0.93
			C386.13,507.99,390.99,504.47,406.5,491.99z M365.3,516.39l-0.66,0.28l-0.2-0.58L365.3,516.39z M373.73,533.26
			c-0.84,0.88-1.66,1.74-2.44,2.56l-5.61-16.15L373.73,533.26z M370.84,536.28c-1.87,1.94-3.56,3.67-5,5.09l-0.99-22.36
			L370.84,536.28z M375.18,553.12c0.58,0.24,1.17,0.47,1.75,0.71l12.2,35.13l-2.86,2.47l-19.22-22.56l-0.87-19.55
			C368.3,550.27,371.2,551.5,375.18,553.12z M389.33,589.55l0.82,2.37l-3.19,0.32l-0.31-0.37L389.33,589.55z M386.26,592.31
			l-0.14,0.01l0.09-0.08L386.26,592.31z M393.53,599.07l0.26-0.38l-0.25,0.47L393.53,599.07z M397.22,593.6l1.32-1.95l26.05-2.64
			l8.36,18.46l-1.22-19.19l14.7-1.49l-13.41,21.08l-36.94-12.16L397.22,593.6z M462.47,585.18l18.79-1.9l-45.71,23.38L462.47,585.18
			z M463.31,584.51l20.82-16.62l-1.63,14.67L463.31,584.51z M484.77,567.39l5.4-4.31l-6.88,17.61L484.77,567.39z M485.49,560.88
			l0.37-3.34c1.9,0.5,3.86,1.02,5.87,1.55l-0.45,1.16L485.49,560.88z M485.92,556.95l0.1-0.92l6.7,0.48l-0.79,2.03
			C489.88,558,487.87,557.47,485.92,556.95z M493.33,556.55l24.54,1.75l30.76,16.05c-10.62-3.45-35.52-10.2-56.13-15.67
			L493.33,556.55z M548.24,482.69l0.32-0.15l-1.55,0.19l-2.48-12.69l11.12,12.3L548.24,482.69z M545.83,479.73l-5.32-14.13
			l3.27,3.61L545.83,479.73z M545.32,480.01l-15.26-25.97l9.39,10.39L545.32,480.01z M416.2,411.38l-0.28-0.68l0.11,1.1l-3.82-4.07
			l4.22,0.65L416.2,411.38z M417.01,408.47l8.14,1.25l-8.4,2.21L417.01,408.47z M411.57,407.05l-0.19-0.21l4.84-1.22l0.43-0.03
			l-0.17,2.21L411.57,407.05z M405.06,406.63l2.98,0.46l-6.64,1.67L405.06,406.63z M406.21,406.22l3.59-0.22l0.48,0.51l-0.81,0.2
			L406.21,406.22z M406.81,405.61l1.69-0.98l0.78,0.83L406.81,405.61z M410.55,405.96l2.57-0.15l-2.19,0.55L410.55,405.96z
			 M416.13,405.05l-6.09,0.37l-1.02-1.09l8.1-4.71l-0.41,5.29L416.13,405.05z M398.81,410.01l10.69-2.7l1.78,0.27l4.35,4.63
			l-4.65,1.22l-15.35-1.61L398.81,410.01z M426.54,409.35l-9.49-1.46l0.18-2.33l21-1.26l2.9,1.22L426.54,409.35z M419.23,404.86
			l12.72-3.2l5.08,2.13L419.23,404.86z M417.29,404.75l0.42-5.49l3.58-2.08l9.77,4.1L417.29,404.75z M393.8,412.22l-13.65,7.86
			l6.5-8.61L393.8,412.22z M378.99,420.66l-3.21-9.1l1.53-1.07l8.67,0.91L378.99,420.66z M376.07,410.66l0.26-0.27l0.11,0.01
			L376.07,410.66z M375.17,411.6l3.33,9.43l-16.11,9.27l1.63-6.97L375.17,411.6z M315.78,476.91l-0.89-0.15l3.88-11.93
			L315.78,476.91z M320.04,462.04l0.79,5.51l-4,7.51L320.04,462.04z M321.29,466.68l-0.78-5.46l12-15.6L321.29,466.68z
			 M306.77,490.13l-0.31,0.25l0.52-3.18L306.77,490.13z M400.88,667l-6.36,2.09l-4.66-3.18L400.88,667z M340.29,632.09l-1.17-0.8
			l-5.16-6.47L340.29,632.09z M299.09,557.7l-2.29-5.15l3.21-5.88L299.09,557.7z M296.17,552.52l-0.19,0.36l-1.17-3.43
			L296.17,552.52z M296.46,553.18l2.53,5.71l-0.19,2.28l-2.58-7.56L296.46,553.18z M311.09,597.17l-0.06-0.17l5.83,7.31l-1.05-1.21
			l0.99,4.2l-6.76-9.54l0.33-1.56L311.09,597.17z M326.13,618.62l-2.53-5.69l1.58,1.82l12.32,15.45l-2.58-1.76l-0.12-0.08
			l-9.49,3.13l-2.46-1.08l-0.95-4.03L326.13,618.62z M388.67,665.8l5.16,3.52l-0.47,0.15l-6.97-3.9L388.67,665.8z M394.43,669.74
			l2.78,1.9l-3.17-1.77L394.43,669.74z M548.43,591.05l7.92-10.3l1.35,1.83l-3.34,10.66l-9.42,9.37L548.43,591.05z M557.44,585.33
			l-0.12,4.96l-2.09,2.08L557.44,585.33z M556.43,591.99l-2.6,4.87l1.04-3.32L556.43,591.99z M558.29,583.37l1.59,2.16l-1.75,3.28
			L558.29,583.37z M558.31,582.44l0.09-3.23l3.35,2.83l-1.57,2.94L558.31,582.44z M558.43,578.47l0.01-0.43l0.4-0.52l5.04,0.53
			l-1.86,3.47L558.43,578.47z M564.51,578.1l3.89,0.41l0.02,0.75l-4.16,4.14l-1.78-1.5L564.51,578.1z M568.96,577.99l-4.16-0.44
			l4-7.49l0.93,7.88l-0.75,0.75L568.96,577.99z M564.18,577.49l-4.92-0.52l8.98-11.68l0.45,3.77L564.18,577.49z M558.58,576.9
			l-0.11-0.01l0.21-7.5l9.27-6.47l0.18,1.55L558.58,576.9z M568.49,562.55l0.89-0.62l0.33,0.5l-1.06,1.38L568.49,562.55z
			 M569.85,561.6l1.07-0.75l-0.84,1.09L569.85,561.6z M569.53,561.11l-1.48-2.26l-1.28-10.82l7.95,7.88l-2.63,3.42L569.53,561.11z
			 M567.34,557.76l-4.68-7.16l1.34-5.32l2.11,2.09L567.34,557.76z M564.16,544.63l1.1-4.38l0.73,6.2L564.16,544.63z M563.69,544.16
			l-0.84-0.83l1.95-7.02l0.28,2.34L563.69,544.16z M565.21,534.85l1.57-5.63l0.45,0.92l-1.75,6.94L565.21,534.85z M565.03,533.34
			l-1.21-10.19l2.57,5.29L565.03,533.34z M563.62,521.4l-1.7-14.38l8.45,7.15l-3.74,13.42L563.62,521.4z M562.85,519.82l-2.92-6.01
			l-0.36-8.77l1.7,1.44L562.85,519.82z M559.54,504.26l-0.43-10.64l0.18-3.85l1.88,15.87L559.54,504.26z M558.88,486.28l-0.04,0.83
			l-0.05-1.3l0.41,0.46L558.88,486.28z M558.75,484.91l-0.09-2.14l4.58-0.22l9.41,17.74L558.75,484.91z M558.64,482.2l-0.37-9.02
			l4.67,8.81L558.64,482.2z M558.91,473.15l5.3,6.29l1.01,2.44l-1.64,0.08L558.91,473.15z M543.56,468.11l-3.61-3.99l-4.26-11.31
			l5.2,1.67L543.56,468.11z M538.9,462.95l-10.28-11.37l-0.76-1.29l7.13,2.29L538.9,462.95z M527.42,449.54l-5.13-8.73l-1.65-3.51
			l11.24,7.01l2.85,7.58L527.42,449.54z M520.19,436.34l-0.06-0.14l3.2-5.6l4.01,1.63l4.21,11.19L520.19,436.34z M503.31,425.81
			l-0.11-0.13l-0.45-1.93l1.02-1.08l11.56,4.69l3.95,8.42L503.31,425.81z M502.37,424.66l-0.22-0.28l0.13-0.14L502.37,424.66z
			 M501.74,423.98l-2.09-2.98l2.07,0.84l0.4,1.74L501.74,423.98z M501.55,424.72l-13.52-8.43l10.63,4.31L501.55,424.72z
			 M485.4,414.59l7.62-2.04l5.03,7.18L485.4,414.59z M476.68,405.23c4.13,0.25,8.19,0.49,11.66,0.67l3.88,5.53L476.68,405.23z
			 M483.63,414.47l-8.35,2.24l-7-3.96l-4.38-4.64l0.63-3.66c3.02,0.2,6.3,0.41,9.6,0.61l-0.66,0.26L483.63,414.47z M463.27,408.3
			l-0.26,1.48l-10.89-6.16c1.43,0.1,3.99,0.27,7.18,0.49L463.27,408.3z M446.98,403.97l-0.13-0.2l1.14-0.07L446.98,403.97z
			 M446.39,404.13l-4.34,1.14l-2.51-1.05l6.64-0.4L446.39,404.13z M438.33,403.71l-5.45-2.29l8.36-2.11l-3.6-3.14l3.18-0.18
			l4.97,7.26L438.33,403.71z M440.03,399.02l-8.04,2.03l-9.57-4.02l14.39-0.81L440.03,399.02z M422.56,396.44l2.34-1.36l8.47-1.86
			l2.82,2.46L422.56,396.44z M417.25,397.84l-0.07,0.93l-8.68,5l-3.86-4.11l12.27-1.89L417.25,397.84z M411.75,397.97l3.02-0.66
			l0.54,0.11L411.75,397.97z M403.94,399.76l4.04,4.3l-2.86,1.65l-1.61,0.1l-11.27-1.73l1.64-2.17l8.93-1.96L403.94,399.76z
			 M393.55,401.38l-4.71,1.03l0.59-0.41l4.13-0.64L393.55,401.38z M387.62,403.28l5.4-1.19l-1.42,1.88l-4.08-0.63L387.62,403.28z
			 M391.2,404.5l-1.62,2.15l-7.41,0.45l4.67-3.27L391.2,404.5z M389.12,407.25l-2.73,3.61l-8.36-0.88l3.24-2.26L389.12,407.25z
			 M377.15,409.9l-0.33-0.03l0.57-0.6l-1.06,0.55l-8.91-0.94l0.08-0.32l12.67-0.76L377.15,409.9z M375.39,410.29
			c-1.23,0.63-4.73,2.43-9.45,4.86l1.34-5.71L375.39,410.29z M374.62,411.34l-10.34,10.88l1.49-6.33
			C369.7,413.87,372.85,412.25,374.62,411.34z M363.5,423.05l-41.68,43.88l12.79-24.01l11-1.19l12.82-22.09
			c2.37-1.21,4.62-2.36,6.67-3.41L363.5,423.05z M345.25,441.19l-10.32,1.12l7.83-14.7c4.95-2.5,10.04-5.09,14.72-7.48
			L345.25,441.19z M334.24,442.38l-9.31,1.01l16.93-15.3L334.24,442.38z M324.82,442.71l1.73-7c3.82-1.87,8.47-4.19,13.4-6.68
			L324.82,442.71z M333.58,443.03l-11.42,10.46l2.34-9.47L333.58,443.03z M332.21,445.06l-11.75,15.27l1.44-5.84L332.21,445.06z
			 M320.49,457.82l-0.5-0.24l-0.17-1.18l1.32-1.2L320.49,457.82z M320.26,458.35l-0.11,0.34l-0.06-0.42L320.26,458.35z
			 M319.74,459.93l-0.75,2.32l-10.41,13.53l-0.22-0.18l0.65-9.3l9.57-8.76l0.89,0.42L319.74,459.93z M307.69,476.95l-7.96,10.35
			l-0.12-12.38l3.28-3.01l4.87,3.96L307.69,476.95z M307.62,477.99l-0.21,2.96l-1.63,9.99l-5.97,4.83l-0.07-7.54L307.62,477.99z
			 M305.64,491.79l-0.24,1.47l-5.48,14.32l-0.11-11.08L305.64,491.79z M299.36,509.05l-1.92,5.02l-2.44-13.67l4.25-3.44
			L299.36,509.05z M285.55,524.12l2.91,8.54l-4.09,1.36L285.55,524.12z M283.77,534.22l-1.56,0.52l0.07-2.64l2.67-7.78
			L283.77,534.22z M288.65,533.2l0.69,2.03l-7.41,19.36l2.37-19.94L288.65,533.2z M289.63,536.09l0.42,1.24l-0.34-0.77l-0.3,0.1
			L289.63,536.09z M292.16,543.49l3.44,10.07l-1.02,1.87l-3.98-15.47L292.16,543.49z M295.85,554.3l2.84,8.31l-0.55,6.66
			l-3.35-13.01L295.85,554.3z M297.98,571.02l-0.57,6.86l-8.33-11.17l5.3-9.72L297.98,571.02z M298.42,572.72l2.56,9.94l-3.04-4.08
			L298.42,572.72z M301.36,584.13l0.56,2.18l-4.14-5.84l0.09-1.02L301.36,584.13z M302.27,585.35l7.65,10.25l-0.33,1.53l-6.74-9.5
			L302.27,585.35z M309.43,597.9l-1.78,8.37l-4.39-17.07L309.43,597.9z M318.29,613.58l3,12.71l-1.51,2.76l-7.07-3.1l-3.77-14.66
			L318.29,613.58z M321.49,627.13l0.7,2.98l-1.88-0.82L321.49,627.13z M322.36,630.81l0.36,1.52l-4.96,1.63l2.27-4.17L322.36,630.81
			z M323.02,631.1l1.47,0.64l-1.22,0.4L323.02,631.1z M325.28,632.1l13.12,5.75l0.51,8.73l-13.74-6.35l-1.77-7.52L325.28,632.1z
			 M352.18,648.51l7.45,7.64l-16-7.39L352.18,648.51z M352.96,648.49l1.57-0.04l8.7,9.37l-2.14-0.99L352.96,648.49z M364.27,658.93
			l3.98,4.28l-1.02-0.1l-5-5.13L364.27,658.93z M365.65,659.57l9.32,4.31l-5.86-0.58L365.65,659.57z M376.56,664.61l13.14,6.07
			l-10.51,3.46l-9.48-10.21L376.56,664.61z M378.31,664.78l6.65,0.65l7.66,4.29l-2.11,0.7L378.31,664.78z M409.41,679.12l-0.6,0.11
			l0.16-0.28l-0.69-0.47L409.41,679.12z M410.2,679.56l1.87,1.05l-2.21,4.02l-20.04-1.27L410.2,679.56z M412.57,680.89l7.88,4.41
			l-9.95-0.63L412.57,680.89z M420.14,685.85l-8.13,1.22l-2.61-0.41l0.79-1.44L420.14,685.85z M432.47,675.41l5.29-0.99l11.87,2.29
			l-4.15,3.56L432.47,675.41z M439.3,674.14l15.07-2.81l1.49,0.03l-5.69,4.88L439.3,674.14z M456.74,671.38l10.13,0.2l3.85,0.43
			l-11.86,5.91l-7.95-1.54L456.74,671.38z M471.77,672.12l0.15,0.02l3.1,5.66l-3.48,2.56l-11.74-2.27L471.77,672.12z M489.57,663.25
			l0.17-0.02l1.88,0.63l0.38,1.43l-10.05,7.4l-9.24-1.04L489.57,663.25z M491.05,663.05l0.35-0.05l0.05,0.18L491.05,663.05z
			 M491.96,662.87l3.64-0.22l-1.8,1.32l-1.69-0.57L491.96,662.87z M491.43,662.33l14.26-7.11l-9.24,6.8L491.43,662.33z
			 M508.51,653.86l-2.25,7.56l-8.75,0.53L508.51,653.86z M521.03,651.36c-2.37,3.38-4.69,6.71-6.66,9.57l-6.73,0.41L521.03,651.36z
			 M509.54,652.41l2.46-8.29l7.04-3.9l6.24-1.31l2.79,2.45c-1.75,2.46-3.64,5.14-5.54,7.84l0.12-0.68L509.54,652.41z M525.45,638.3
			l-1.13-0.99l10.94-6.05c-0.85,1.18-2.33,3.27-4.18,5.86L525.45,638.3z M539.14,621.8l2.21-1.59l-3.99,7.47L539.14,621.8z
			 M539.42,620.89l5.17-17.12l9.4-9.35l-1.63,5.18l-10.39,19.45L539.42,620.89z M551.43,602.57l-3.92,12.51l-4.48,3.21
			L551.43,602.57z M560.26,586.05l0.56,0.76l-2.07,2.06L560.26,586.05z M560.56,585.48l1.64-3.07l1.64,1.39l-2.61,2.6L560.56,585.48
			z M564.29,584.18l2.11,1.79l-1.99,4.74l-2.83-3.84L564.29,584.18z M569,579.49l0.2-0.2l-0.2,0.47L569,579.49z M569.27,569.18
			l2.18-4.07l2.26,3.45l-3.52,8.38L569.27,569.18z M569.16,568.17l-0.42-3.54l1.3-1.69l1.05,1.61L569.16,568.17z M570.41,562.46
			l2.08-2.7l1.86-1.3l-2.94,5.51L570.41,562.46z M575.48,555.86l0.82-1.07l-0.66,1.23L575.48,555.86z M575.07,555.45l-8.41-8.34
			l-1-8.42l1.95-7.74l10.19,20.94L575.07,555.45z M567.84,530.08l3.31-13.12l7.51,35.36L567.84,530.08z M571.1,514.79l-3.65,14.48
			l-0.43-0.89l3.84-13.8L571.1,514.79z M570.54,513.56l-8.72-7.37l-2.32-19.59l14.18,15.69L570.54,513.56z M571.36,496.62
			l-7.48-14.1l1.58-0.08L571.36,496.62z M566.22,481.83l-0.39,0.02l-0.39-0.94L566.22,481.83z M557.63,470.74l-0.04-0.07l0,0.03
			l-12.54-14.88l10.77,3.46l7.65,18.4L557.63,470.74z M544.35,454.99l-4.37-5.19l0.79,4.04l-5.34-1.71l-2.75-7.3l21.22,13.24
			L544.35,454.99z M534.8,435.26l19.73,22.5l-22.18-13.83l-4.29-11.4L534.8,435.26z M525.37,427.02l1.69,4.48l-3.44-1.4
			L525.37,427.02z M522.78,430.39l-2.96,5.18l-3.7-7.88L522.78,430.39z M510.03,416.08l4.94,10.52l-10.77-4.37L510.03,416.08z
			 M503.2,422.44l-0.6,0.64l-0.23-0.97L503.2,422.44z M498.09,406.21l3.46,14.94l-2.52-1.02l-5.43-7.73l0.63-0.17l-1.03-0.41
			l-4.13-5.89C493.47,406.15,496.85,406.27,498.09,406.21z M485.19,401.4l2.74,3.9c-3.36-0.17-7.22-0.4-11.16-0.64L485.19,401.4z
			 M473.14,404.43c-2.94-0.18-5.83-0.37-8.52-0.55l0.46-2.67L473.14,404.43z M465.63,394.61l-1,5.81l-12.65-5.05L465.63,394.61z
			 M451.1,395.42l7.63,8.07c-4.6-0.31-7.72-0.53-7.83-0.54l-1.27-0.09l0.26,0.15l-3.42,0.21l-4.97-7.26L451.1,395.42z M438.2,392.16
			l2.25,3.28l-3.43,0.19l-2.95-2.57L438.2,392.16z M431.26,391.38l1.57,1.37l-6.3,1.38L431.26,391.38z M423.06,395.49l-1.73,1.01
			l-0.2,0.03l-1.23,0.07l0.21,0.09l-3.19,0.49l-0.78-0.17L423.06,395.49z M404.08,399.07l-4.46-4.75l0.14-0.19l13.64,2.89
			L404.08,399.07z M399.35,394.04l0.35,0.07l-0.17,0.12L399.35,394.04z M403.42,399.21l-0.71,0.16l-7.82,1.21l4.38-5.79
			L403.42,399.21z M397.18,396.58l-3.11,4.12l-3.56,0.55L397.18,396.58z M368.26,405.27l19.88-3.07l-0.76,0.54l-3.14,0.69l1.76,0.27
			l-4.94,3.46l-13.44,0.81L368.26,405.27z M366.89,408.59l-0.05,0.23l-1.35-0.14L366.89,408.59z M366.7,409.38l-1.43,6.11
			c-1.94,0.99-4.06,2.08-6.31,3.23l5.56-9.57L366.7,409.38z M365.02,407.14l-0.59,1.02l-0.57,0.03L365.02,407.14z M363.89,409.08
			l-5.88,10.12c-4.57,2.33-9.58,4.88-14.49,7.37l19.45-17.58L363.89,409.08z M327.79,430.67l20.27-14.25l-5.41,10.16l-1.08,0.98
			c-5.42,2.74-10.62,5.34-14.85,7.42L327.79,430.67z M317.47,439.93c1.14-0.41,4.22-1.85,8.4-3.89l-1.82,7.36l-0.83,0.75l0.66-0.07
			l-2.5,10.11l-1.66,1.52L317.47,439.93z M319.31,456.88l0.06,0.41l-0.33-0.16L319.31,456.88z M309.91,453.44l8.1,3.84l-8.94,8.19
			L309.91,453.44z M308.39,466.87l-0.58,8.29l-4.49-3.65L308.39,466.87z M299.56,469.19l2.89,2.34l-2.84,2.6L299.56,469.19z
			 M293.74,480.29l5.3-4.85l0.12,12.6l-15.72,20.43L293.74,480.29z M299.17,488.97l0.07,7.26l-4.36,3.53l-0.72-4.05l-2.2,6.42
			l-7.71,6.24L299.17,488.97z M282.81,510.27l8.79-7.11l-6.32,18.4l-0.01-0.03l-0.01,0.08l-2.95,8.58L282.81,510.27z M281.26,535.06
			l0.39-1.15l-0.03,1.02L281.26,535.06z M283.69,534.86l-1.88,15.85l0.38-15.35L283.69,534.86z M281.7,556.82l7.56-19.75l4.91,19.11
			l-5.47,10.03L281.7,556.82z M297.34,578.75l-0.08,0.99l-8.64-12.18l0.15-0.28L297.34,578.75z M295.13,605.27l-5.77-35.68
			l7.83,11.04L295.13,605.27z M283.42,577.08l5.06-9.28l6.03,37.28L283.42,577.08z M295.53,607.43l2.17-26.07l4.62,6.51l5.06,19.66
			l-0.56,2.65L295.53,607.43z M304.79,622.48l2.47-11.59l1.05,0.26l3.73,14.52L304.79,622.48z M312.89,626.66l6.61,2.9l-2.55,4.67
			l-1.96,0.64L312.89,626.66z M315.14,635.43l1.41-0.46l-0.56,1.02l-0.8-0.37L315.14,635.43z M315.51,636.87l-0.14-0.53l0.34,0.16
			L315.51,636.87z M316.52,636.23l0.83-1.53l5.49-1.81l1.66,7.03L316.52,636.23z M327.16,648.65l-1.82-7.7l13.61,6.29l0.06,1.08
			L327.16,648.65z M339.62,648.87l2.71-0.08l18.42,8.51l5.58,5.72l-26.03-2.56L339.62,648.87z M366.96,663.67l9.45,9.69
			l-34.06-12.11L366.96,663.67z M342.43,661.89l35.58,12.65l-10.04,3.31L342.43,661.89z M378.28,674.45l-10.43-10.69l0.99,0.1
			l9.75,10.49L378.28,674.45z M379.62,674.61l10.85-3.57l17.91,8.28l-20.79,3.87L379.62,674.61z M393.62,684.18l15.93,1.01
			l-0.76,1.39L393.62,684.18z M408.91,687.54l0.19-0.34l1.01,0.16L408.91,687.54z M422.86,686.03l0.08,0.01l-0.03-0.01l19.24-2.9
			l-8.58,7.36l-19.68-3.11L422.86,686.03z M443.23,682.96l6.71-1.01l-3.85-1.44l4.26-3.65l7.66,1.48l-22.39,11.16L443.23,682.96z
			 M465.04,685.14l-29.5,5.04l23.4-11.66l11.96,2.31L465.04,685.14z M477,681.42l-4.7-0.91l2.99-2.2L477,681.42z M475.48,677.45
			l-2.87-5.23l8.66,0.97L475.48,677.45z M494.35,674.07l-11.55-1.29l9.36-6.89L494.35,674.07z M492.51,664.92l-0.23-0.85l0.95,0.32
			L492.51,664.92z M509.01,669.07l-14.54-4.87l2.19-1.61l9.43-0.57l-0.18,0.62l0.89-0.66l7.17-0.44
			C511.49,665.13,509.63,667.93,509.01,669.07z M519.86,660.59l-4.76,0.29c1.91-2.77,4.12-5.94,6.38-9.17L519.86,660.59z
			 M523.58,648.73c1.69-2.4,3.37-4.77,4.93-6.98l2.03,1.79L523.58,648.73z M535.88,647.48l-4.43-3.9l10.92-8.14L535.88,647.48z
			 M542.79,634.67l-10.87,2.27c2.66-3.75,4.49-6.3,4.55-6.39l0.74-1.04l-0.26,0.15l5.46-10.21l4.8-3.45l-2.58,8.23l4.56-1.43
			L542.79,634.67z M550.38,621.83l6.48-12.01l-0.24,10.06L550.38,621.83z M557.61,606.89l0.47-16.55l3.08-3.07l2.98,4.04
			L557.61,606.89z M568.9,596.8l-4.09-5.55l2.05-4.89l1.79,1.52L568.9,596.8z M569.23,587.6l-0.18-6.44l0.83-1.98l1.18,9.97
			L569.23,587.6z M575.86,571.85l-5,4.97l3.23-7.68L575.86,571.85z M577.75,558.92l-3.77,8.99l-2.22-3.39l3.63-6.79l0.68-0.48
			L577.75,558.92z M576.14,556.51l-0.06-0.06l2.06-3.86l0.92,1.89L576.14,556.51z"/>
		<circle class="st2" cx="428.91" cy="536.63" r="4.04"/>
		<circle class="st2" cx="432.95" cy="607.03" r="4.04"/>
		<circle class="st2" cx="393.13" cy="598.95" r="4.04"/>
		<circle class="st2" cx="390.82" cy="559.13" r="4.04"/>
		<circle class="st2" cx="365.43" cy="517.01" r="4.04"/>
		<path class="st2" d="M386.78,507.78c0,2.23-1.81,4.04-4.04,4.04s-4.04-1.81-4.04-4.04c0-2.23,1.81-4.04,4.04-4.04
			S386.78,505.55,386.78,507.78z"/>
		<circle class="st2" cx="400.63" cy="507.2" r="4.04"/>
		<circle class="st2" cx="427.75" cy="551.05" r="4.04"/>
		<circle class="st2" cx="457.76" cy="548.75" r="4.04"/>
		<circle class="st2" cx="460.07" cy="563.17" r="4.04"/>
		<circle class="st2" cx="415.06" cy="566.63" r="4.04"/>
		<circle class="st2" cx="447.95" cy="536.63" r="4.04"/>
		<circle class="st2" cx="428.33" cy="472.58" r="4.04"/>
		<circle class="st2" cx="430.64" cy="448.92" r="4.04"/>
		<circle class="st2" cx="383.9" cy="488.16" r="4.04"/>
		<circle class="st2" cx="489.5" cy="508.35" r="4.04"/>
		<circle class="st2" cx="315.81" cy="477.19" r="4.04"/>
		<circle class="st2" cx="401.21" cy="667.04" r="4.04"/>
		<path class="st2" d="M380.96,674.02c0,0.93-0.75,1.68-1.68,1.68c-0.93,0-1.68-0.75-1.68-1.68s0.75-1.68,1.68-1.68
			C380.21,672.34,380.96,673.09,380.96,674.02z"/>
		<path class="st2" d="M369.56,678.58c0,0.93-0.75,1.68-1.68,1.68c-0.93,0-1.68-0.75-1.68-1.68c0-0.93,0.75-1.68,1.68-1.68
			C368.81,676.9,369.56,677.65,369.56,678.58z"/>
		<path class="st2" d="M389.04,683.77c0,0.93-0.75,1.68-1.68,1.68c-0.93,0-1.68-0.75-1.68-1.68s0.75-1.68,1.68-1.68
			C388.29,682.1,389.04,682.85,389.04,683.77z"/>
		<path class="st2" d="M341.43,659.97c0,0.93-0.75,1.68-1.68,1.68s-1.68-0.75-1.68-1.68c0-0.93,0.75-1.68,1.68-1.68
			S341.43,659.04,341.43,659.97z"/>
		<path class="st2" d="M328.59,649.15c0,0.93-0.75,1.68-1.68,1.68c-0.93,0-1.68-0.75-1.68-1.68c0-0.93,0.75-1.68,1.68-1.68
			C327.84,647.47,328.59,648.22,328.59,649.15z"/>
		<circle class="st2" cx="347.26" cy="641.27" r="1.68"/>
		<circle class="st2" cx="340.19" cy="648.29" r="1.68"/>
		<circle class="st2" cx="315.09" cy="636.31" r="1.68"/>
		<path class="st2" d="M340.28,634.29c0,0.93-0.75,1.68-1.68,1.68c-0.93,0-1.68-0.75-1.68-1.68c0-0.93,0.75-1.68,1.68-1.68
			C339.53,632.61,340.28,633.37,340.28,634.29z"/>
		<circle class="st2" cx="334.85" cy="628.81" r="1.68"/>
		<circle class="st2" cx="304.84" cy="622.75" r="1.68"/>
		<path class="st2" d="M327.01,618.42c0,0.93-0.75,1.68-1.68,1.68c-0.93,0-1.68-0.75-1.68-1.68c0-0.93,0.75-1.68,1.68-1.68
			C326.26,616.75,327.01,617.5,327.01,618.42z"/>
		<path class="st2" d="M317.77,603.85c0,0.93-0.75,1.68-1.68,1.68c-0.93,0-1.68-0.75-1.68-1.68c0-0.93,0.75-1.68,1.68-1.68
			C317.02,602.18,317.77,602.93,317.77,603.85z"/>
		<path class="st2" d="M322.97,614.1c0,0.93-0.75,1.68-1.68,1.68c-0.93,0-1.68-0.75-1.68-1.68c0-0.93,0.75-1.68,1.68-1.68
			C322.22,612.42,322.97,613.17,322.97,614.1z"/>
		<circle class="st2" cx="295.47" cy="608.04" r="1.68"/>
		<path class="st2" d="M285.32,577.36c0,0.93-0.75,1.68-1.68,1.68s-1.68-0.75-1.68-1.68c0-0.93,0.75-1.68,1.68-1.68
			S285.32,576.44,285.32,577.36z"/>
		<circle class="st2" cx="288.83" cy="568.28" r="1.68"/>
		<path class="st2" d="M302.19,544.76c0,0.93-0.75,1.68-1.68,1.68c-0.93,0-1.68-0.75-1.68-1.68s0.75-1.68,1.68-1.68
			C301.44,543.08,302.19,543.83,302.19,544.76z"/>
		<circle class="st2" cx="280.81" cy="535.47" r="1.68"/>
		<path class="st2" d="M301.38,528.84c0,0.93-0.75,1.68-1.68,1.68s-1.68-0.75-1.68-1.68c0-0.93,0.75-1.68,1.68-1.68
			S301.38,527.91,301.38,528.84z"/>
		<circle class="st2" cx="285.28" cy="522.92" r="1.68"/>
		<circle class="st2" cx="282.25" cy="510.81" r="1.68"/>
		<circle class="st2" cx="294.08" cy="496.38" r="1.68"/>
		<circle class="st2" cx="305.76" cy="503.59" r="1.68"/>
		<path class="st2" d="M308.45,490.75c0,0.93-0.75,1.68-1.68,1.68s-1.68-0.75-1.68-1.68c0-0.93,0.75-1.68,1.68-1.68
			S308.45,489.83,308.45,490.75z"/>
		<circle class="st2" cx="299.27" cy="468.25" r="1.68"/>
		<circle class="st2" cx="293.21" cy="479.65" r="1.68"/>
		<circle class="st2" cx="307.64" cy="476.04" r="1.68"/>
		<path class="st2" d="M311.34,453.1c0,0.93-0.75,1.68-1.68,1.68c-0.93,0-1.68-0.75-1.68-1.68c0-0.93,0.75-1.68,1.68-1.68
			C310.58,451.43,311.34,452.18,311.34,453.1z"/>
		<circle class="st2" cx="320.62" cy="458.3" r="1.68"/>
		<path class="st2" d="M323.02,467.67c0,0.93-0.75,1.68-1.68,1.68c-0.93,0-1.68-0.75-1.68-1.68s0.75-1.68,1.68-1.68
			C322.27,466,323.02,466.75,323.02,467.67z"/>
		<circle class="st2" cx="334.27" cy="443.15" r="1.68"/>
		<circle class="st2" cx="324.03" cy="443.87" r="1.68"/>
		<path class="st2" d="M318.93,439.83c0,0.93-0.75,1.68-1.68,1.68c-0.93,0-1.68-0.75-1.68-1.68s0.75-1.68,1.68-1.68
			C318.18,438.15,318.93,438.9,318.93,439.83z"/>
		<circle class="st2" cx="349.28" cy="414.73" r="1.68"/>
		<path class="st2" d="M329.03,430.31c0,0.93-0.75,1.68-1.68,1.68s-1.68-0.75-1.68-1.68c0-0.93,0.75-1.68,1.68-1.68
			S329.03,429.38,329.03,430.31z"/>
		<circle class="st2" cx="342.64" cy="427.57" r="1.68"/>
		<path class="st2" d="M346.77,441.13c0,0.93-0.75,1.68-1.68,1.68s-1.68-0.75-1.68-1.68c0-0.93,0.75-1.68,1.68-1.68
			S346.77,440.2,346.77,441.13z"/>
		<path class="st2" d="M368.55,404.63c0,0.93-0.75,1.68-1.68,1.68c-0.93,0-1.68-0.75-1.68-1.68c0-0.93,0.75-1.68,1.68-1.68
			C367.8,402.95,368.55,403.7,368.55,404.63z"/>
		<circle class="st2" cx="362.12" cy="408.38" r="1.68"/>
		<circle class="st2" cx="361.97" cy="430.74" r="1.68"/>
		<circle class="st2" cx="375.96" cy="410.69" r="1.68"/>
		<circle class="st2" cx="378.85" cy="421.08" r="1.68"/>
		<circle class="st2" cx="398.76" cy="394.24" r="1.68"/>
		<circle class="st2" cx="384.76" cy="403.19" r="1.68"/>
		<path class="st2" d="M412.7,413.58c0,0.93-0.75,1.68-1.68,1.68c-0.93,0-1.68-0.75-1.68-1.68c0-0.93,0.75-1.68,1.68-1.68
			C411.95,411.9,412.7,412.65,412.7,413.58z"/>
		<path class="st2" d="M419.04,397.71c0,0.93-0.75,1.68-1.68,1.68s-1.68-0.75-1.68-1.68c0-0.93,0.75-1.68,1.68-1.68
			S419.04,396.78,419.04,397.71z"/>
		<path class="st2" d="M432.75,391.07c0,0.93-0.75,1.68-1.68,1.68c-0.93,0-1.68-0.75-1.68-1.68c0-0.93,0.75-1.68,1.68-1.68
			C432,389.39,432.75,390.14,432.75,391.07z"/>
		<circle class="st2" cx="421.69" cy="396.84" r="1.68"/>
		<circle class="st2" cx="416.93" cy="405.06" r="1.68"/>
		<path class="st2" d="M417.89,412.57c0,0.93-0.75,1.68-1.68,1.68c-0.93,0-1.68-0.75-1.68-1.68c0-0.93,0.75-1.68,1.68-1.68
			C417.14,410.89,417.89,411.64,417.89,412.57z"/>
		<path class="st2" d="M433.33,422.23c0,0.93-0.75,1.68-1.68,1.68c-0.93,0-1.68-0.75-1.68-1.68c0-0.93,0.75-1.68,1.68-1.68
			C432.57,420.55,433.33,421.3,433.33,422.23z"/>
		<circle class="st2" cx="440.88" cy="473.01" r="1.68"/>
		<circle class="st2" cx="346.25" cy="473.01" r="1.68"/>
		<circle class="st2" cx="407.7" cy="489.74" r="1.68"/>
		<circle class="st2" cx="441.03" cy="399.44" r="1.68"/>
		<circle class="st2" cx="438.57" cy="391.79" r="1.68"/>
		<path class="st2" d="M467.8,394.39c0,0.93-0.75,1.68-1.68,1.68c-0.93,0-1.68-0.75-1.68-1.68c0-0.93,0.75-1.68,1.68-1.68
			C467.05,392.71,467.8,393.46,467.8,394.39z"/>
		<circle class="st2" cx="451.99" cy="395.4" r="1.68"/>
		<circle class="st2" cx="450.84" cy="403.04" r="1.68"/>
		<path class="st2" d="M455.4,414.15c0,0.93-0.75,1.68-1.68,1.68c-0.93,0-1.68-0.75-1.68-1.68c0-0.93,0.75-1.68,1.68-1.68
			C454.65,412.47,455.4,413.23,455.4,414.15z"/>
		<path class="st2" d="M464.05,414.3c0,0.93-0.75,1.68-1.68,1.68c-0.93,0-1.68-0.75-1.68-1.68s0.75-1.68,1.68-1.68
			C463.3,412.62,464.05,413.37,464.05,414.3z"/>
		<path class="st2" d="M474.01,417.76c0,0.93-0.75,1.68-1.68,1.68c-0.93,0-1.68-0.75-1.68-1.68s0.75-1.68,1.68-1.68
			C473.26,416.08,474.01,416.83,474.01,417.76z"/>
		<path class="st2" d="M495.07,412.28c0,0.93-0.75,1.68-1.68,1.68c-0.93,0-1.68-0.75-1.68-1.68c0-0.93,0.75-1.68,1.68-1.68
			C494.32,410.6,495.07,411.35,495.07,412.28z"/>
		<circle class="st2" cx="484.88" cy="414.73" r="1.68"/>
		<path class="st2" d="M486.99,401.17c0,0.93-0.75,1.68-1.68,1.68c-0.93,0-1.68-0.75-1.68-1.68c0-0.93,0.75-1.68,1.68-1.68
			C486.24,399.49,486.99,400.24,486.99,401.17z"/>
		<path class="st2" d="M476.32,405.5c0,0.93-0.75,1.68-1.68,1.68s-1.68-0.75-1.68-1.68c0-0.93,0.75-1.68,1.68-1.68
			S476.32,404.57,476.32,405.5z"/>
		<path class="st2" d="M499.69,406.51c0,0.93-0.75,1.68-1.68,1.68c-0.93,0-1.68-0.75-1.68-1.68s0.75-1.68,1.68-1.68
			C498.93,404.83,499.69,405.58,499.69,406.51z"/>
		<circle class="st2" cx="509.98" cy="415.6" r="1.68"/>
		<path class="st2" d="M503.72,424.54c0,0.93-0.75,1.68-1.68,1.68c-0.93,0-1.68-0.75-1.68-1.68c0-0.93,0.75-1.68,1.68-1.68
			C502.97,422.86,503.72,423.61,503.72,424.54z"/>
		<circle class="st2" cx="514.02" cy="441.71" r="1.68"/>
		<circle class="st2" cx="504.5" cy="433.92" r="1.68"/>
		<circle class="st2" cx="525.42" cy="425.98" r="1.68"/>
		<circle class="st2" cx="519.65" cy="436.37" r="1.68"/>
		<circle class="st2" cx="531.76" cy="461.76" r="1.68"/>
		<circle class="st2" cx="526.72" cy="449.64" r="1.68"/>
		<circle class="st2" cx="540.13" cy="450.22" r="1.68"/>
		<path class="st2" d="M557.97,459.45c0,0.93-0.75,1.68-1.68,1.68c-0.93,0-1.68-0.75-1.68-1.68c0-0.93,0.75-1.68,1.68-1.68
			C557.22,457.77,557.97,458.52,557.97,459.45z"/>
		<circle class="st2" cx="558.02" cy="472.29" r="1.68"/>
		<path class="st2" d="M568.5,481.67c0,0.93-0.75,1.68-1.68,1.68c-0.93,0-1.68-0.75-1.68-1.68s0.75-1.68,1.68-1.68
			C567.75,479.99,568.5,480.74,568.5,481.67z"/>
		<path class="st2" d="M575.85,503.16c0,0.93-0.75,1.68-1.68,1.68s-1.68-0.75-1.68-1.68c0-0.93,0.75-1.68,1.68-1.68
			S575.85,502.23,575.85,503.16z"/>
		<circle class="st2" cx="579.66" cy="521.48" r="1.68"/>
		<path class="st2" d="M572.68,515.57c0,0.93-0.75,1.68-1.68,1.68s-1.68-0.75-1.68-1.68c0-0.93,0.75-1.68,1.68-1.68
			S572.68,514.64,572.68,515.57z"/>
		<circle class="st2" cx="559.32" cy="539.95" r="1.68"/>
		<circle class="st2" cx="577.93" cy="552.06" r="1.68"/>
		<path class="st2" d="M581.05,555.24c0,0.93-0.75,1.68-1.68,1.68s-1.68-0.75-1.68-1.68c0-0.93,0.75-1.68,1.68-1.68
			S581.05,554.31,581.05,555.24z"/>
		<circle class="st2" cx="577.64" cy="558.7" r="1.68"/>
		<circle class="st2" cx="576.2" cy="572.12" r="1.68"/>
		<path class="st2" d="M570.81,578.75c0,0.93-0.75,1.68-1.68,1.68s-1.68-0.75-1.68-1.68c0-0.93,0.75-1.68,1.68-1.68
			S570.81,577.83,570.81,578.75z"/>
		<circle class="st2" cx="571.87" cy="590" r="1.68"/>
		<circle class="st2" cx="569.42" cy="597.94" r="1.68"/>
		<circle class="st2" cx="557.01" cy="620.44" r="1.68"/>
		<circle class="st2" cx="543.16" cy="604.58" r="1.68"/>
		<circle class="st2" cx="545.04" cy="623.47" r="1.68"/>
		<circle class="st2" cx="557.15" cy="608.61" r="1.68"/>
		<path class="st2" d="M522.33,634.44c0,0.93-0.75,1.68-1.68,1.68c-0.93,0-1.68-0.75-1.68-1.68s0.75-1.68,1.68-1.68
			C521.58,632.76,522.33,633.51,522.33,634.44z"/>
		<circle class="st2" cx="536.24" cy="630.69" r="1.68"/>
		<circle class="st2" cx="536.09" cy="647.85" r="1.68"/>
		<circle class="st2" cx="542.3" cy="635.16" r="1.68"/>
		<path class="st2" d="M513.97,641.36c0,0.93-0.75,1.68-1.68,1.68c-0.93,0-1.68-0.75-1.68-1.68c0-0.93,0.75-1.68,1.68-1.68
			C513.22,639.68,513.97,640.43,513.97,641.36z"/>
		<path class="st2" d="M524.21,648.86c0,0.93-0.75,1.68-1.68,1.68c-0.93,0-1.68-0.75-1.68-1.68c0-0.93,0.75-1.68,1.68-1.68
			C523.46,647.19,524.21,647.94,524.21,648.86z"/>
		<path class="st2" d="M522.05,660.84c0,0.93-0.75,1.68-1.68,1.68c-0.93,0-1.68-0.75-1.68-1.68s0.75-1.68,1.68-1.68
			C521.29,659.16,522.05,659.91,522.05,660.84z"/>
		<circle class="st2" cx="506.81" cy="661.99" r="1.68"/>
		<circle class="st2" cx="508.83" cy="669.2" r="1.68"/>
		<circle class="st2" cx="494.98" cy="674.59" r="1.68"/>
		<circle class="st2" cx="477.81" cy="682.1" r="1.68"/>
		<circle class="st2" cx="465.26" cy="685.65" r="1.68"/>
		<circle class="st2" cx="449.39" cy="682.19" r="1.68"/>
		<path class="st2" d="M435.06,690.99c0,0.93-0.75,1.68-1.68,1.68c-0.93,0-1.68-0.75-1.68-1.68c0-0.93,0.75-1.68,1.68-1.68
			C434.31,689.31,435.06,690.06,435.06,690.99z"/>
		<path class="st2" d="M410.1,687.96c0,0.93-0.75,1.68-1.68,1.68c-0.93,0-1.68-0.75-1.68-1.68s0.75-1.68,1.68-1.68
			C409.35,686.28,410.1,687.03,410.1,687.96z"/>
		<circle class="st2" cx="421.84" cy="685.79" r="1.68"/>
		<path class="st2" d="M356.29,648.72c0,0.93-0.75,1.68-1.68,1.68c-0.93,0-1.68-0.75-1.68-1.68c0-0.93,0.75-1.68,1.68-1.68
			C355.54,647.04,356.29,647.79,356.29,648.72z"/>
		<path class="st2" d="M371.87,632.99c0,0.93-0.75,1.68-1.68,1.68c-0.93,0-1.68-0.75-1.68-1.68c0-0.93,0.75-1.68,1.68-1.68
			C371.12,631.32,371.87,632.07,371.87,632.99z"/>
		<circle class="st2" cx="372.21" cy="604.29" r="1.68"/>
		<circle class="st2" cx="385.34" cy="592.6" r="1.68"/>
		<circle class="st2" cx="361.11" cy="546.15" r="1.68"/>
		<circle class="st2" cx="347.55" cy="509.8" r="1.68"/>
		<path class="st2" d="M398.7,526.67c0,0.93-0.75,1.68-1.68,1.68s-1.68-0.75-1.68-1.68c0-0.93,0.75-1.68,1.68-1.68
			S398.7,525.75,398.7,526.67z"/>
		<path class="st2" d="M467.8,482.39c0,0.93-0.75,1.68-1.68,1.68c-0.93,0-1.68-0.75-1.68-1.68c0-0.93,0.75-1.68,1.68-1.68
			C467.05,480.71,467.8,481.46,467.8,482.39z"/>
		<circle class="st2" cx="485.89" cy="551.05" r="1.68"/>
		<path class="st2" d="M386.59,522.78c0,0.93-0.75,1.68-1.68,1.68c-0.93,0-1.68-0.75-1.68-1.68c0-0.93,0.75-1.68,1.68-1.68
			C385.83,521.1,386.59,521.85,386.59,522.78z"/>
		<circle class="st2" cx="483.73" cy="503.02" r="1.68"/>
		<path class="st2" d="M368.26,569.09c0,0.93-0.75,1.68-1.68,1.68c-0.93,0-1.68-0.75-1.68-1.68s0.75-1.68,1.68-1.68
			C367.51,567.41,368.26,568.16,368.26,569.09z"/>
		<circle class="st2" cx="481.85" cy="660.26" r="1.68"/>
		<circle class="st2" cx="470.89" cy="664.15" r="1.68"/>
		<circle class="st2" cx="443.91" cy="669.06" r="1.68"/>
		<path class="st2" d="M419.62,670.21c0,0.93-0.75,1.68-1.68,1.68c-0.93,0-1.68-0.75-1.68-1.68c0-0.93,0.75-1.68,1.68-1.68
			C418.87,668.54,419.62,669.29,419.62,670.21z"/>
		<path class="st2" d="M558.83,570.1c0,0.93-0.75,1.68-1.68,1.68c-0.93,0-1.68-0.75-1.68-1.68c0-0.93,0.75-1.68,1.68-1.68
			C558.08,568.42,558.83,569.17,558.83,570.1z"/>
		<path class="st2" d="M553.21,497.68c0,0.93-0.75,1.68-1.68,1.68s-1.68-0.75-1.68-1.68c0-0.93,0.75-1.68,1.68-1.68
			S553.21,496.75,553.21,497.68z"/>
		<circle class="st2" cx="526.14" cy="477.19" r="1.68"/>
		<circle class="st2" cx="503.06" cy="488.01" r="1.68"/>
		<path class="st2" d="M472.13,496.96c0,0.93-0.75,1.68-1.68,1.68c-0.93,0-1.68-0.75-1.68-1.68c0-0.93,0.75-1.68,1.68-1.68
			C471.38,495.28,472.13,496.03,472.13,496.96z"/>
		<circle class="st2" cx="281.19" cy="557.17" r="1.68"/>
		<circle class="st2" cx="543.74" cy="482.96" r="4.04"/>
		<circle class="st2" cx="496.42" cy="547.02" r="4.04"/>
		<circle class="st2" cx="481.99" cy="580.48" r="4.04"/>
		<circle class="st2" cx="550.09" cy="575.29" r="4.04"/>
		<path class="st2" d="M462.95,491.04c0,2.23-1.81,4.04-4.04,4.04c-2.23,0-4.04-1.81-4.04-4.04c0-2.23,1.81-4.04,4.04-4.04
			C461.14,487,462.95,488.81,462.95,491.04z"/>
		<circle class="st2" cx="492.38" cy="560.86" r="4.04"/>
		<path class="st2" d="M330.59,541.54l-0.07-0.02l-32.73-11.36l78.56,2.91L330.59,541.54z M301.62,530.88l29.01,10.07l40.48-7.5
			L301.62,530.88z"/>
		<path class="st2" d="M314.03,596.27l26.21-46.06l0.14-0.02l21.51-2.76L314.03,596.27z M340.6,550.75l-23.86,41.95l43.58-44.47
			L340.6,550.75z"/>
		<path class="st2" d="M370.45,570.2l-70.99-26.14l41.12,6.18L370.45,570.2z M304.93,545.46l61.15,22.51l-25.77-17.22L304.93,545.46
			z"/>
		<path class="st2" d="M365.41,516.8l-60.77-11.44l54.46-18.73l0.07,0.32L365.41,516.8z M306.89,505.19l57.78,10.88l-6-28.69
			L306.89,505.19z"/>
		<path class="st2" d="M383.24,488.36l-4.74-68.06l0.55,0.58l49.59,51.83l-0.43,0.15L383.24,488.36z M379.19,421.85l4.57,65.72
			l43.84-15.12L379.19,421.85z"/>
		<path class="st2" d="M408.1,489.23l-62.24-16.02l16.02-43.05L408.1,489.23z M346.63,472.81l59.97,15.43l-44.54-56.92
			L346.63,472.81z"/>
		<path class="st2" d="M349.06,509.08l-42.74-18.2l8.79-11.88L349.06,509.08z M307.22,490.63l38.8,16.53l-30.82-27.31L307.22,490.63
			z"/>
		<path class="st2" d="M284.87,523.23l9.02-27.21l0.27,0.09l72.28,23.12L284.87,523.23z M294.26,496.74l-8.58,25.87l77.55-3.81
			L294.26,496.74z"/>
		<path class="st2" d="M417.57,668.84l15.83-61.54l0.36,0.53c6.15,9.02,36.78,54.11,35.72,56.45c-1.06,2.35-43.1,4.2-51.52,4.55
			L417.57,668.84z M433.63,608.68l-15.31,59.55c19.18-0.8,49.56-2.63,50.63-4.2C469.35,662.01,448.19,630.03,433.63,608.68z"/>
		<path class="st2" d="M512.19,641.81l-0.16-0.32l-29.79-58.79l0.49-0.3l38.32,52.09L512.19,641.81z M484.33,585.55l28.05,55.36
			l7.88-6.52L484.33,585.55z"/>
		<path class="st2" d="M512.24,641.71L512.24,641.71c-0.42,0-1,0-10.67-38.48c-4.76-18.91-9.42-38.07-9.47-38.26l-0.19-0.78
			l0.64,0.48l51.03,38.18l-0.2,0.23c-8.39,9.96-30.28,36.27-30.81,38.35C512.52,641.64,512.37,641.71,512.24,641.71z M492.85,565.62
			c4.99,20.49,17.31,70.27,19.37,75.22c2.62-4.68,27.81-34.66,30.53-37.89L492.85,565.62z"/>
		<path class="st2" d="M443.61,667.68l0.01-0.31l2.55-81.68l0.51,0.97c1.44,2.76,35.4,67.67,35.46,73.59
			c0.06,6.02-34.3,7.29-38.22,7.41L443.61,667.68z M446.68,587.91l-2.47,79.17c10.71-0.36,37.4-2.24,37.35-6.82
			C481.51,654.87,451.02,596.24,446.68,587.91z"/>
		<path class="st2" d="M354.63,649.14l-20.27-20.42l0.37-0.18l63.55-30.45L354.63,649.14z M335.34,628.9l19.26,19.4l41.47-48.49
			L335.34,628.9z"/>
		<path class="st2" d="M320.17,614.6l70.43-54.73l-16.5,44.67l-0.16,0.03L320.17,614.6z M389.36,561.56l-66.96,52.03l51.27-9.56
			L389.36,561.56z"/>
		<path class="st2" d="M437.33,670.56C437.33,670.56,437.33,670.56,437.33,670.56c-3.91,0-9.7-0.58-15.3-1.13
			c-5.5-0.55-11.18-1.11-14.92-1.11c-1.73,0-2.97,0.12-3.68,0.36c-0.08,0.03-0.17,0.04-0.25,0.04c-0.15,0-0.38-0.05-0.58-0.3
			c-4.06-4.84,11.52-94,12.19-97.8l0.21-1.22l0.35,1.19c1.12,3.87,27.51,94.73,27.18,98.49
			C442.43,670.1,440.83,670.56,437.33,670.56z M407.11,667.73c3.77,0,9.47,0.57,14.98,1.12c5.59,0.56,11.37,1.13,15.24,1.13
			c0,0,0,0,0,0c4.09,0,4.59-0.66,4.61-0.95c0.25-2.89-17.23-64.07-26.82-97.09c-5.65,32.36-15.17,92.44-12.1,96.1
			c0.08,0.09,0.12,0.09,0.14,0.09C404.02,667.86,405.29,667.73,407.11,667.73z"/>
		<path class="st2" d="M315.96,605.99l-17.4-47.46l0.48,0.07l66.6,10.3L315.96,605.99z M299.43,559.25l16.8,45.81l47.95-35.8
			L299.43,559.25z"/>
		<path class="st2" d="M560.85,542.12l-0.38-0.03l-111.8-8.16l103.08-36.64l0.07,0.33L560.85,542.12z M451.44,533.56l108.68,7.93
			l-8.82-43.42L451.44,533.56z"/>
		<path class="st2" d="M491.28,662.81L460.37,561.6l1.08,1.6c2.04,3.03,50.05,74.33,51.12,78.08c1.09,3.83-18.7,19.5-20.96,21.27
			L491.28,662.81z M462.05,565.13l29.53,96.71c8.74-6.89,21.16-17.82,20.43-20.4C511.05,638.08,469.35,575.98,462.05,565.13z"/>
		<path class="st2" d="M470.73,664.55l-0.12-0.29l-43.68-110.45l85.06,90.01l-0.35,0.17L470.73,664.55z M428.57,556.38l42.47,107.37
			l40-20.1L428.57,556.38z"/>
		<path class="st2" d="M466.22,482.75l0.09-0.96l5.77-64.47l32.87,16.51L466.22,482.75z M472.58,418.21l-5.61,62.67l37.08-46.86
			L472.58,418.21z"/>
		<path class="st2" d="M455.61,491.23l-2.18-77.26l19.93-8.97L455.61,491.23z M454.01,414.34l2.03,71.91l16.52-80.25L454.01,414.34z
			"/>
		<path class="st2" d="M441.56,473.61l10.72-70.98l50.32,21.83l-0.37,0.3L441.56,473.61z M452.74,403.46l-10.39,68.77l59.14-47.61
			L452.74,403.46z"/>
		<path class="st2" d="M460.19,491.89l-0.31-1.52c-0.18-0.88-17.63-87.56-19.13-90.81l-0.23-0.5l34.44,6.21l-0.05,0.28
			L460.19,491.89z M441.46,399.81c2.18,7.17,16.34,77.27,18.69,88.93l14.16-83.01L441.46,399.81z"/>
		<path class="st2" d="M468.88,496.39l0.5-0.86c2.33-4.01,34.54-61.18,34.87-61.76l0.2-0.35l0.27,0.29l27.52,29.8L468.88,496.39z
			 M504.56,434.4c-2.58,4.58-29.72,52.73-34.19,60.57l60.93-31.62L504.56,434.4z"/>
		<path class="st2" d="M483.92,502.77l28.37-61.62l0.29,0.38l31.44,41.19L483.92,502.77z M512.41,442.26L485,501.8l58.06-19.36
			L512.41,442.26z"/>
		<path class="st2" d="M383.31,488.18l-51.46-45.3l13.37-0.37l38.5,45.26L383.31,488.18z M333.34,443.42l47.36,41.69l-35.73-42.01
			L333.34,443.42z"/>
		<path class="st2" d="M407.83,487.24l-30.53-76.63l21.7-18.62l0.05,0.56L407.83,487.24z M377.99,410.77l28.9,72.53l-8.36-90.16
			L377.99,410.77z"/>
		<path class="st2" d="M559.51,540.24l-0.2-0.01l-111.65-3.55l127-33.95l-0.22,0.54L559.51,540.24z M451.59,536.23l107.54,3.42
			l14.57-36.06L451.59,536.23z"/>
		<path class="st2" d="M545.27,623.98l-61.89-41.83l67.04-3.12l-0.04,0.34L545.27,623.98z M485.14,582.64l59.67,40.33l4.96-43.33
			L485.14,582.64z"/>
		<g>
			<path class="st2" d="M762.14,574.26l-52.91-42.63l14.1-61.96l0.26-1.12l-21.76,25.98l-11.57-8.17l-34.62-84.12l-0.06-0.15
				l-0.15-0.02c-0.44-0.07-19.11-2.92-41.76-6.26l-10.53-26.35l-0.25-0.62l-10.46,23.87c-0.8-0.12-1.6-0.23-2.4-0.35l-6.56-8.65
				l10.23-2.67l-12.58-0.44l-36.34-47.92l-0.11-0.15l-52.09,14.27l-8.82-6.23l0.28-0.13l-0.39,0.05L468,329.45l-0.14-0.1
				l-36.21,18.38l-20.95,2.92c-9.61-4.5-16.08-7.55-16.32-7.67l-0.07-0.03l-28.59,3.95l-4.73-2.1l-0.12-0.05l-7.98,3.92l-25.73,3.55
				l3.91-6.28l-0.45-0.33l-5.8,6.92l-36.06,4.98l1.85,0.29c0.44,0.07,10.64,1.69,26.29,4.19l-1.63,1.95l-45.95,6.4l-1.21,0.17
				l17.6,5.65l-10.94,2.03l-1.96,0.37l1.99,0.19c0.38,0.04,5.52,0.52,14.2,1.33l-25.07,12.33l-21.33,4.06l-0.13,0.03l-4.49,8.68
				l-40.52,19.92l34.33-7.97l-24.02,46.37l-10.64,10.89l-13.99,7.76l-15.48-49.45l-0.38-1.22l-8.09,63.95l-34.08,18.9l-0.12,0.07
				l-3.51,27.69l-20.72-13.59l-1.38-0.9l47.87,62.28l-1.16,9.15l4.6-4.67l7.63,9.93l-2.11,1.65l-0.4,0.31l5.47,1.88l14.47,18.83
				l-35.46,13.21l-0.77,0.29l60.93,18.65l1.75,2.27l0.06,0.08l26.49,6.31l69,21.12l106.42,49.37c-9.41,5.58-15.38,9.19-16.54,10.07
				l-1.76,1.33l22.57-9.42l20.79,9.65l0.11,0.05l28.76-11.96l19.06,5.83l0.21-0.51l-11.82-6.27l84.09-7.81l0.12-0.01l32.89-43.02
				l39.08-16.25l1.24-0.51l-27.18-0.41l7.8-10.2l63.52-26.5l11.54,25.59l0.17,0.37L740.58,596l10.66,9.86l0.41-0.37l-8.88-11.7
				l19.15-19.3L762.14,574.26z M730.72,586.13l-20.86-19.28l-4.5-4.67l6.16-8.69l12.6,16.62L730.72,586.13z M725.44,571.83
				l16.6,21.89l-1.48,1.49l-8.87-8.2L725.44,571.83z M731.22,587.35l1.21,2.94l-15.94-16.55L731.22,587.35z M688.74,619.13
				l-23.42,7.9l-2.29-5.08l18.6-26.26l9.85,11.39L688.74,619.13z M691.93,607.6l8.74,10.1l-33.29,13.89l-1.83-4.06l23.51-7.93
				l0.15-0.05L691.93,607.6z M422.99,727.83c0.21-0.12,0.43-0.25,0.65-0.38l8.09,2.48l-1.71,0.71L422.99,727.83z M429.3,730.94
				l-20.86,8.71l-3.09-1.43c4.87-2.88,10.59-6.25,17.04-10.03L429.3,730.94z M174.31,611.74l-5.21-15.16l2.83-2.21l17.52,17.96
				l0.23,0.24l6.71-9.68c2.57,7.47,2.97,7.49,3.22,7.49c0.06,0,0.25-0.02,0.34-0.26c0.22-0.63,0.53-5.75,0.89-13.65l0.79-1.15
				l21.38,14.02l-27.15,10.12l-19.12-6.58L174.31,611.74z M173.76,611.86l-12.17-4.19l-2.52-3.28l9.56-7.46L173.76,611.86z
				 M149.09,524.36l5.82,4.73l-1.44,11.36l-0.06,0.05l0.05,0.04l-0.97,7.67l-6.95-20.23L149.09,524.36z M145.34,527.4l-2.9-8.46
				l6.22,5.06L145.34,527.4z M303.95,373.35l4.07-0.76l-6.71,8.01l-7.33-2.35L303.95,373.35z M293.22,378l-5.25-1.68l13.95-2.59
				L293.22,378z M445.92,357.12l-2.39,1.08l-11.84,2.25c-4.35-2.03-8.54-3.98-12.45-5.81l7.67-3.89
				C432.76,352.71,439.15,354.85,445.92,357.12z M427.61,350.4l4.21-2.14l48.47-6.76l-33.64,15.28
				C437.08,353.57,430.17,351.26,427.61,350.4z M455.71,360.42l-12.14,5.57c-2.63-1.22-5.24-2.44-7.82-3.64l7.95-3.61l4.49-0.86
				C450.66,358.72,453.17,359.56,455.71,360.42z M449.29,357.68l21.18-4.03l-14.03,6.44C453.94,359.25,451.55,358.44,449.29,357.68z
				 M530.29,374.1l5.66,4.92l-26.58-0.93c-0.92-0.31-1.79-0.61-2.72-0.94c-0.43-0.15-0.87-0.3-1.3-0.45l19-6.81L530.29,374.1z
				 M524.98,369.67l0.15-0.05l0.97,0.84L524.98,369.67z M706.96,498.82l-0.33,0.5l-3.73-1.59l1.04-1.04L706.96,498.82z
				 M704.34,496.29l12.41-12.4l-9.49,14.47L704.34,496.29z M707.41,499.14l1.83,1.29l-2.09-0.89L707.41,499.14z M708.53,532.2
				l-2.32,10.18l-15.59-17.63l3.18-4.84l14.47,11.66L708.53,532.2z M517.53,694.72l38.13-15.91l26.26,1.12l-103.38,46.94
				L517.53,694.72z M476.6,727.76l-15.37,6.98l-17.43-9.25l71.96-30.03L476.6,727.76z M519.01,693.51l18.75-15.46l16.6,0.71
				L519.01,693.51z M517.24,694.24l-74.07,30.91l-8.18-4.34c21.36-12.48,47.97-27.93,75.57-43.93l26.38,1.13L517.24,694.24z
				 M442.5,725.43l-9.96,4.15l-8.25-2.52c3.22-1.89,6.59-3.86,10.12-5.92L442.5,725.43z M196.56,601.68
				c-1.12-3.33-2.48-7.51-4-12.31l7.82,5.13c-0.03,0.61-0.05,1.2-0.08,1.78L196.56,601.68z M200.25,597.32
				c-0.3,6.44-0.56,10.85-0.75,12.22c-0.49-0.88-1.44-3.43-2.72-7.21L200.25,597.32z M158.79,566.57l-0.45-1.31
				c2.79-2.8,6.33-6.27,10.5-10.29c3.09,2.89,6.57,6.14,10.33,9.65l-9.16,9.31L158.79,566.57z M169.61,574.33l-6.04,6.14
				l-4.48-13.04L169.61,574.33z M158.03,566.07l-0.3-0.2c0.06-0.06,0.11-0.12,0.17-0.18L158.03,566.07z M342.77,366.13
				c10.04,1.6,20.93,3.34,32.16,5.14l-9.47,1.8l-19.38-0.68l-0.1,0l-7.3,5.78l-21.08,4.01c-3-0.28-5.88-0.55-8.62-0.8l6.32-10.15
				L342.77,366.13z M315.69,370.6l2.72-4.37l6.12-3.01c5.15,0.82,10.71,1.71,16.59,2.65L315.69,370.6z M434.42,362.35l-16.7,7.59
				l-9.86-4.37l23.76-4.52C432.55,361.48,433.48,361.91,434.42,362.35z M432.55,360.87l8.83-1.68l-6.3,2.86
				C434.24,361.65,433.39,361.26,432.55,360.87z M504.52,377c1,0.34,1.99,0.68,2.98,1.02l-1.99-0.07l-1.02-0.94L504.52,377z
				 M664.5,491.48l-6.57-3.69l-10.75-12.15l15.52,13.48L664.5,491.48z M664.75,490.89l2.37,2.06l-1.41-0.79L664.75,490.89z
				 M664.57,538.99l-1.49-1.46l4.71-4.71l0.63,1.57L664.57,538.99z M668.66,534.98l5.26,13.18l-8.95-8.77L668.66,534.98z
				 M645.04,588.85l-5.99-18.53l0.05-0.06l7.72,17.12L645.04,588.85z M647.07,587.9l0.6,1.33l-1.68,2.56l-0.76-2.37L647.07,587.9z
				 M298.79,664.51c-0.49-1.88-1.09-4.11-1.78-6.65l10.34,6.78L298.79,664.51z M308.23,665.21l4.02,2.64l-12.74-0.54
				c-0.17-0.67-0.36-1.42-0.58-2.23L308.23,665.21z M296.8,657.05c-0.84-3.1-1.8-6.6-2.87-10.49l15.58,8.27l12.33,10.03l-13.44-0.2
				L296.8,657.05z M286.97,650.61l-11.73-13.96l17.99,9.55c1.06,3.83,2.01,7.3,2.85,10.39L286.97,650.61z M192.33,511.57L203.7,498
				c-0.21,6.84-0.45,14.73-0.72,23.11l-7.18,1.52L192.33,511.57z M195.25,522.75l-14.94,3.17l11.6-13.85L195.25,522.75z
				 M240.35,459.9c0.42,1.45,1.61,5.62,3.41,11.87l-22.5,5.87l18.76-17.59L240.35,459.9z M283.13,422.84l28-22.16l11.62,4.03
				l-43.29,24L283.13,422.84z M278.47,429.28l-11.58,6.42l14.95-11.83L278.47,429.28z M310.51,400.47L284,421.44l11.98-19.22
				l11.74-2.73L310.51,400.47z M308.74,399.26l4.65-1.08l-2.37,1.87L308.74,399.26z M323.57,404.9l0.54-0.3l-12.46-4.32l3.01-2.38
				l22.45-5.21l18.57,5.96l0.1,0.03l22.64-10.28c4.48,0.41,9.02,0.84,13.61,1.26l-70.15,32.2l17.71-25.55l-1.81,1.65
				c-2.04,1.85-16.52,15.04-36.6,33.4l-32.73,15.03l10.41-16.69L323.57,404.9z M365.51,373.63l30.88,1.08
				c2.67,0.43,5.34,0.86,8,1.28l-2.28,1.03l-40.05,9.29c-10.37-0.96-20.22-1.88-29.33-2.72l6.19-4.9L365.51,373.63z M339.86,377.95
				l6.31-4.99l16.83,0.59L339.86,377.95z M419.18,377.19l-0.99,0.45c-3.19-0.51-6.4-1.03-9.63-1.55l3.61-0.84l2.7,0.09
				L419.18,377.19z M416.41,375.41l6.19,0.22l-2.74,1.26L416.41,375.41z M549.39,392.59c1.26,0.45,2.49,0.88,3.7,1.31l12.64,10.98
				c-3.85-0.33-8.17-0.71-12.9-1.13l-9.28-9.64L549.39,392.59z M543.1,393.66l-4.77-4.96c3.5,1.23,6.88,2.42,10.13,3.56
				L543.1,393.66z M550.34,392.34l0.73-0.19l0.88,0.76C551.42,392.73,550.88,392.54,550.34,392.34z M683.79,516.92l0.62,0.81
				l-0.66-0.75L683.79,516.92z M636.78,565.1l1.65,5.1l-43.13,51.48l-14.73-1.66l55.82-55.8L636.78,565.1z M601.99,455.62l1.54,1.59
				l-1.25-0.7L601.99,455.62z M601.56,456.11l-7.75-4.35l7.35,3.14L601.56,456.11z M589.34,449.24l-5.63-3.16l-7.14-15.82l0.31-0.71
				l23.5,24.41L589.34,449.24z M584.61,447.22l-0.48-0.2l-0.04-0.09L584.61,447.22z M582.9,445.62l-10.47-5.89l3.85-8.79
				L582.9,445.62z M583.28,446.48l0.1,0.22l-6.51-2.78l-2.88-2.67L583.28,446.48z M583.72,447.45l2.17,4.81l-7.8-7.21L583.72,447.45
				z M584.48,447.77l4.61,1.97l12.72,7.15l4.65,14.38l-19.53-18.05L584.48,447.77z M602.53,457.29l2.33,1.31l56.89,59.09l2.97,7.44
				l-57.43-53.08L602.53,457.29z M606.54,459.55l40.74,22.9l0.57,0.46l13.35,33.41L606.54,459.55z M644.67,480.33l-39.47-22.18
				l-2.51-2.61l23.85,10.18L644.67,480.33z M628.43,466.53l15.54,6.64l3.47,8.68L628.43,466.53z M601.7,454.52l-0.11-0.11
				l-3.83-11.87l27.18,21.9L601.7,454.52z M600.72,453.5L577.13,429l1-2.27l18.85,15.18L600.72,453.5z M576.71,428.56l-1.69-1.75
				l-1.83-4.06l4.48,3.61L576.71,428.56z M576.47,429.12l-0.2,0.46l-0.56-1.25L576.47,429.12z M575.97,430.26l-4,9.13l-39.94-36.92
				c7.45,0.67,14.34,1.28,20.54,1.83l21.99,22.84L575.97,430.26z M572.17,440.32l3.18,2.94l-3.77-1.61L572.17,440.32z
				 M571.07,441.44l-79.23-33.83l15.22-3.97l64.66,36.33L571.07,441.44z M576.56,444.39l9.91,9.16l7.19,15.95l-23.99-23.51
				l1.68-3.83L576.56,444.39z M587.52,454.52l19.29,17.83l4.74,14.68l-16.79-16.46L587.52,454.52z M611.92,488.17l23.32,72.16
				l-39.85-88.36L611.92,488.17z M612.78,489.01l49.52,48.53l-25.57,25.57L612.78,489.01z M612.41,487.87l-4.77-14.75l57.56,53.21
				l2.37,5.94l-4.89,4.88L612.41,487.87z M666.15,527.2l3.37,3.12l-1.52,1.52L666.15,527.2z M665.67,526l-2.9-7.25l8.98,9.33
				l-1.84,1.84L665.67,526z M662.23,517.37l-13.49-33.76l16.54,13.32l17.66,19.97l-10.78,10.78L662.23,517.37z M650.22,484.09
				l7.35,4.13l5.51,6.23L650.22,484.09z M648.23,482.33l-3.41-8.53l11.63,13.15L648.23,482.33z M626.83,465.25l-29.38-23.67
				l-4.11-12.71l50,43.43L626.83,465.25z M596.66,440.94l-18.3-14.75l3.28-7.49l10.89,9.46L596.66,440.94z M581.88,418.17l2.56-5.84
				l3.86,2.73l3.91,12.09L581.88,418.17z M581.44,417.79l-14.05-12.2c3.2,0.27,6.07,0.52,8.52,0.72l8.07,5.7L581.44,417.79z
				 M581.2,418.32l-3.29,7.51l-5.27-4.25l-0.91-0.73l2.15,4.77l-20.47-21.25c4.79,0.42,9.16,0.8,13.03,1.13L581.2,418.32z
				 M551.99,403.69c-6.24-0.55-13.15-1.17-20.62-1.84l-3.84-3.55l15.41-4.02L551.99,403.69z M530.45,401.77
				c-3.88-0.35-7.91-0.71-12.06-1.09l8.49-2.22L530.45,401.77z M531.12,402.38l39.02,36.07l-62.31-35.01l8.97-2.34
				C521.76,401.54,526.54,401.97,531.12,402.38z M507.13,403.04l-5.99-3.37c4.8,0.44,9.48,0.86,14.03,1.27L507.13,403.04z
				 M506.36,403.25L491,407.25l-25.33-10.82c11.75,1.08,23.21,2.12,34.11,3.11L506.36,403.25z M293.03,645.46l-18.74-9.95
				l-24.68-29.39l41.98,34.15C292.09,642.06,292.57,643.79,293.03,645.46z M292.36,640.88l14.92,12.13l-13.55-7.19
				C293.28,644.24,292.83,642.58,292.36,640.88z M247.72,603.86l-28.48-33.92l37.24-53.73c11.26,39.43,25.8,90.5,34.86,123.13
				L247.72,603.86z M218.91,570.41l26.52,31.58l-30.96-25.18L218.91,570.41z M214.04,576.46l-9.38-7.63l7.81-6.09l6.07,7.23
				L214.04,576.46z M218.86,569.5l-6.15-7.32l-0.17-0.2l-8.33,6.5l-2.2-1.79c0.51-14.17,1.03-29.98,1.49-44.47
				c0.3-0.28,0.6-0.56,0.9-0.84l19.84-4.21l0.12-0.02l21.07-33.8c0.44-0.4,0.87-0.81,1.31-1.21c2.64,9.21,5.92,20.68,9.55,33.38
				L218.86,569.5z M203.76,568.82l-1.88,1.46c0.03-0.96,0.07-1.93,0.1-2.9L203.76,568.82z M205.19,520.64
				c12.16-11.34,25.41-23.62,38.69-35.87l-19.87,31.88L205.19,520.64z M253.93,469.69l7.63-1.99c-4.81,4.42-9.67,8.9-14.55,13.4
				c-0.02-0.07-0.04-0.14-0.06-0.21L253.93,469.69z M246.75,480.17c-0.84-2.93-1.61-5.61-2.29-8l8.7-2.27L246.75,480.17z
				 M247.19,481.72c5.21-4.81,10.42-9.6,15.55-14.32l32.85-8.57l-38.89,56.1C253.08,502.29,249.82,490.89,247.19,481.72z
				 M263.61,466.59c13.6-12.51,26.64-24.46,37.91-34.78l18.75-8.61l-24.2,34.91L263.61,466.59z M302.87,430.59
				c16.49-15.09,28.98-26.47,33.48-30.57l-15.46,22.3L302.87,430.59z M321.26,422.76l71.88-33c23.15,2.14,47.46,4.38,70.73,6.52
				l26.25,11.21L296.9,457.91L321.26,422.76z M464.01,395.73l-38.15-16.29c20.97,3.37,40.09,6.46,53.57,8.67l19.17,10.77
				C487.54,397.88,475.91,396.82,464.01,395.73z M462.2,395.56c-22.43-2.06-45.76-4.21-68.05-6.27l24.12-11.07
				c1.78,0.29,3.56,0.57,5.32,0.86L462.2,395.56z M363.81,386.48l35.72-8.29l-21.21,9.64C373.4,387.37,368.55,386.92,363.81,386.48z
				 M377.3,388.29l-21.55,9.79l-17.58-5.65l23.93-5.55C367.06,387.34,372.13,387.81,377.3,388.29z M402.29,377.55l4.83-1.12
				c3.41,0.55,6.8,1.09,10.16,1.63l-24.24,11.13c-4.59-0.42-9.13-0.84-13.6-1.26L402.29,377.55z M407.68,375.1l2.35,0.08l-2.93,0.68
				c-0.27-0.04-0.54-0.09-0.81-0.13L407.68,375.1z M405.3,375.57c-1.47-0.24-2.94-0.47-4.42-0.71l5.55,0.19L405.3,375.57z
				 M405.67,376.2l-0.81,0.19l0.52-0.24C405.48,376.17,405.57,376.18,405.67,376.2z M419.18,377.8l0.69-0.32l1.6,0.69
				C420.71,378.05,419.95,377.93,419.18,377.8z M412.12,374.7l-3.3-0.12l2.06-0.94l2.03,0.87L412.12,374.7z M411.57,373.34
				l6.15-2.79l4.23,1.87l-8.12,1.88L411.57,373.34z M410.87,373.04l-13.04-5.57l9.06-1.73l10.14,4.49L410.87,373.04z M410.19,373.35
				l-2.62,1.19l-11.13-0.39c-6.12-0.98-12.25-1.96-18.29-2.93l18.71-3.56L410.19,373.35z M391.95,374l-23.97-0.84l8.57-1.63
				C381.64,372.35,386.79,373.17,391.95,374z M331.92,383.52c-4.28-0.4-8.41-0.78-12.33-1.15l18.14-3.45L331.92,383.52z
				 M331.29,384.02l-5.58,4.41l-14.12-4.54l6.04-1.15C321.94,383.15,326.51,383.58,331.29,384.02z M332.09,384.1
				c8.79,0.82,18.27,1.7,28.25,2.62l-23.2,5.38l-10.79-3.46L332.09,384.1z M336.08,392.35l-20.4,4.73l10.14-8.03L336.08,392.35z
				 M299.85,432.59c-11.2,10.25-24.05,22.02-37.41,34.31l-8.08,2.11l13.57-21.77L299.85,432.59z M253.58,469.21l-9.28,2.42
				c-1.76-6.14-2.97-10.35-3.43-11.97l26.14-12L253.58,469.21z M221.85,476.33l10.8-12.89l5.77-2.65L221.85,476.33z M220.41,478.44
				l23.5-6.13c0.72,2.53,1.54,5.37,2.44,8.5l-1.33,2.13c-14.04,12.95-28.09,25.97-40.9,37.93l-0.57,0.12
				c0.27-8.61,0.52-16.72,0.73-23.68l14.6-17.43L220.41,478.44z M202.96,521.68c0,0.09-0.01,0.18-0.01,0.27
				c-1.93,1.8-3.83,3.58-5.7,5.33l-1.29-4.12L202.96,521.68z M202.93,522.76c-0.45,14.19-0.96,29.61-1.45,43.49l-12.84-10.45
				l13.19-13.4l0.12-0.12l-4.51-14.39C199.24,526.2,201.07,524.49,202.93,522.76z M201.31,542.13l-13.11,13.32l-8.06-6.56
				c-0.37-1.22-0.73-2.44-1.1-3.66c5.44-5.17,11.48-10.86,17.95-16.92L201.31,542.13z M187.81,555.85l-4.26,4.33
				c-1.04-3.42-2.08-6.88-3.12-10.34L187.81,555.85z M179.36,548.26l-1.9-1.55c0.37-0.35,0.74-0.71,1.12-1.06
				C178.84,546.52,179.1,547.39,179.36,548.26z M179.65,549.21c0.79,2.62,1.58,5.25,2.38,7.89c0.37,1.21,0.72,2.37,1.07,3.53
				l-3.54,3.6c-3.54-3.3-6.98-6.52-10.32-9.64c2.42-2.33,5.03-4.83,7.82-7.48L179.65,549.21z M183.28,561.24
				c0.97,3.21,1.89,6.22,2.75,9.03c-2.05-1.9-4.07-3.79-6.07-5.66L183.28,561.24z M183.73,560.78l4.51-4.58l13.21,10.74
				c-0.05,1.28-0.09,2.54-0.14,3.79l-8.03,6.27c-2.16-2.01-4.3-4-6.43-5.98C185.83,567.69,184.78,564.26,183.73,560.78z
				 M192.84,577.34l-3.26,2.54c-0.78-2.52-1.59-5.14-2.41-7.82C189.02,573.79,190.91,575.55,192.84,577.34z M193.26,577.73
				c2.45,2.28,4.96,4.61,7.53,6.98c-0.13,3.29-0.26,6.36-0.38,9.15l-8.12-5.32c-0.8-2.54-1.65-5.25-2.53-8.08L193.26,577.73z
				 M193.69,577.39l7.59-5.93c-0.16,4.41-0.32,8.63-0.47,12.53C198.43,581.78,196.05,579.58,193.69,577.39z M201.86,571.01
				l2.35-1.83l9.51,7.74l-8.03,11.58c-1.45-1.34-2.9-2.68-4.34-4.02C201.51,580.31,201.69,575.78,201.86,571.01z M214.15,577.27
				l33.17,26.98l25.66,30.56l-40.11-21.29c-8.77-8.02-17.82-16.35-26.78-24.64L214.15,577.27z M273.94,635.95l11.42,13.6
				l-46.19-30.29c-1.54-1.4-3.09-2.81-4.65-4.24L273.94,635.95z M312.04,656.18l16.55,8.79l-5.86-0.09L312.04,656.18z
				 M309.81,654.36l-17.71-14.4c-9.08-32.7-23.83-84.51-35.21-124.34l39.52-57.01l194.55-50.77l79.89,34.11l-1.75,4l-0.08,0.18
				l25.28,24.77l41.84,92.78l-56.38,56.36l-0.41,0.41l15.51,1.74l-8.56,10.22c-19.39,11.2-40.47,23.39-61.43,35.53l-195.06-2.96
				L309.81,654.36z M595.53,622.27l6.98,0.78c-4.79,2.77-9.73,5.62-14.8,8.55L595.53,622.27z M603.33,622.58l-7.37-0.83l42.67-50.93
				l5.95,18.41l-38.56,31.8C605.14,621.54,604.23,622.06,603.33,622.58z M638.85,569.69l-0.01-0.03L638.85,569.69L638.85,569.69z
				 M637.3,564.9l-0.39-1.2l25.78-25.77l1.52,1.49l-24.97,29.8L637.3,564.9z M668.23,532.4l1.7-1.7l0.9,0.83l-2,2.38L668.23,532.4z
				 M670.32,530.3l1.82-1.82l0.66,0.68l-1.62,1.93L670.32,530.3z M672.54,528.08l7.19-7.19l-6.57,7.84L672.54,528.08z
				 M683.38,517.41l5.5,6.22l0.97,1.28l-8.25,12.59l-8.05-8.36L683.38,517.41z M690.21,525.38l15.28,20.15l-3.09,13.57l-20.41-21.2
				L690.21,525.38z M689.31,523.27l-5.15-6.8l0.03-0.04l2.37-2.36l6.8,5.48l-3.12,4.76L689.31,523.27z M683.81,516.02l-8.1-10.68
				l10.18,8.2L683.81,516.02z M683.42,516.42l-0.09,0.09l-15.47-17.49l6.05,4.88L683.42,516.42z M665.66,496.53l-6.61-7.48
				l6.29,3.54l7.18,9.47L665.66,496.53z M646.39,474.2l7.41,3.16l7.27,9.59L646.39,474.2z M645.02,473.01l-0.64-0.56l-0.16-0.18
				l-6.37-15.94l15.28,20.15L645.02,473.01z M643.12,471.03l-40.66-45.98l25.11,17.73l9.01,11.88L643.12,471.03z M641.17,469.67
				l-48.15-41.82l-3.96-12.26l11.43,8.07L641.17,469.67z M588.77,414.71l-2.19-6.77l12.3,13.91L588.77,414.71z M588.01,414.17
				l-3.35-2.36l1.49-3.39L588.01,414.17z M584.2,411.48l-7.21-5.09c4.65,0.38,7.67,0.6,8.71,0.63l0.19,0.59L584.2,411.48z
				 M585.45,406.25l0.07,0.21c-1.27-0.05-4.5-0.29-9.42-0.7l-10.33-7.29C576.18,402.27,583.34,405.07,585.45,406.25z M575.01,405.67
				c-2.43-0.2-5.21-0.44-8.33-0.7l-12.15-10.55c3.28,1.17,6.38,2.28,9.25,3.33L575.01,405.67z M553.38,393.43l-1.66-1.44l2.84-0.74
				l7.51,5.3C559.46,395.6,556.59,394.57,553.38,393.43z M551.21,391.54l-5.36-4.66c0.98,0.12,2.01,0.25,3.08,0.38l5.04,3.56
				L551.21,391.54z M550.56,391.71l-1.16,0.3c-3.61-1.28-7.58-2.67-11.92-4.19l-1.95-2.03c2.11,0.15,5.32,0.49,9.34,0.97
				L550.56,391.71z M534.85,385.19l-0.71-0.04l2.18,2.27c-7.28-2.54-15.61-5.43-25.15-8.71l25.44,0.89l7.51,6.52
				C540,385.63,536.79,385.3,534.85,385.19z M537.16,388.29l5.32,5.53l-15.45,4.03l-20.9-19.32l3.17,0.11
				C519.01,381.98,528.43,385.24,537.16,388.29z M504.66,377.93l-2.48-0.09l1.72-0.62L504.66,377.93z M505.29,378.51l21.11,19.51
				l-9.64,2.52c-5.41-0.49-11.02-1-16.8-1.52l-18.92-10.63c9.21,1.51,15.53,2.57,17.57,2.96c0.47,0.15,0.64,0.17,0.73,0.17l0.29,0
				l0.02-0.25c0.03-0.28-0.1-0.3-0.91-0.46c-1.93-0.63-7.43-3-14.95-6.37l16.98-6.08L505.29,378.51z M479.62,387.58l-1.8-1.01
				l5.22-1.87c5.48,2.46,9.94,4.41,12.8,5.58C492.46,389.7,486.85,388.77,479.62,387.58z M483.06,384.1
				c-4.49-2.01-9.66-4.36-15.2-6.9l31.42,1.1L483.06,384.1z M482.3,384.37l-5.82,2.09l1.53,0.86c-13.87-2.27-33.22-5.4-54.27-8.78
				l-3.19-1.36l3.29-1.51l42.57,1.48C472.2,379.8,477.6,382.26,482.3,384.37z M424.96,375.15l18.61-8.54
				c7.28,3.38,14.64,6.78,21.52,9.94L424.96,375.15z M423.73,375.11l-8.73-0.3l-0.3-0.13l8.19-1.9l0.81-0.19l-5.3-2.35l16.69-7.58
				c2.58,1.2,5.2,2.42,7.83,3.64L423.73,375.11z M406.96,365.17l-4.51-2l16.16-8.2c3.81,1.78,7.9,3.69,12.14,5.67L406.96,365.17z
				 M406,365.36l-9.08,1.73l-1.18-0.5l6.07-3.08L406,365.36z M394.43,366.62l1.51,0.65l-19.41,3.7
				c-11.19-1.79-22.07-3.53-32.13-5.14l44.16-8.21l12.6,5.58L394.43,366.62z M308.35,381.33c-2.23-0.21-4.38-0.41-6.43-0.6l6.95-8.3
				l5.68-1.06L308.35,381.33z M308.02,381.86l-0.47,0.75l-3.47-1.12C305.36,381.61,306.68,381.73,308.02,381.86z M308.64,381.91
				c2.23,0.21,4.58,0.43,6.98,0.65l-5.14,0.98l-2.38-0.76L308.64,381.91z M309.34,383.76l-2.1,0.4l0.56-0.89L309.34,383.76z
				 M310.44,384.12l14.74,4.73l-10.77,8.53l-6.66,1.54l-7.99-2.77l7.07-11.35L310.44,384.12z M306.74,399.16l-10.34,2.4l3.07-4.92
				L306.74,399.16z M295.63,401.74l-14.03,3.26l9.45-11.28l7.88,2.73L295.63,401.74z M295.22,402.4l-12.5,20.06l-18.81,14.89
				l-17.56,9.74l34.67-41.39L295.22,402.4z M261.22,439.47L236,459.43l9.34-11.15L261.22,439.47z M264.21,437.82l13.65-7.57
				l-10.32,16.56l-26.83,12.32l-0.11-0.38l-0.9,0.84l-6.22,2.86l0.76-0.91L264.21,437.82z M231.47,463.98l-11.8,14.08l-9.42,2.46
				l20.46-16.19L231.47,463.98z M208.88,480.9l-1.04,0.82l11.22-2.93l-0.59,0.71l-14.05,13.18c0.23-7.77,0.41-13.64,0.49-16.51
				l23.68-10.87L208.88,480.9z M215.49,483.05l-11.19,13.36c0.03-1.01,0.06-1.99,0.09-2.95L215.49,483.05z M203.72,497.1
				l-11.59,13.84l-1.45-4.62L203.82,494C203.79,495.01,203.76,496.04,203.72,497.1z M191.71,511.45l-12.34,14.74l-0.52,0.62
				l16.57-3.52l1.39,4.43c-6.46,6.05-12.5,11.74-17.95,16.91c-2.22-7.4-4.38-14.64-6.34-21.27l17.72-16.62L191.71,511.45z
				 M178.4,545.06c-0.46,0.44-0.92,0.88-1.37,1.31l-15.55-12.65l10.59-9.93C173.92,530.07,176.1,537.39,178.4,545.06z
				 M176.62,546.75c-2.77,2.64-5.39,5.14-7.79,7.46c-5.18-4.85-10.09-9.45-14.6-13.7l6.84-6.41L176.62,546.75z M154.11,539.86
				l1.31-10.35l5.21,4.24L154.11,539.86z M153.96,541.02c1.6,1.5,6.85,6.44,14.48,13.57c-4.06,3.92-7.53,7.32-10.29,10.1
				l-5.25-15.28L153.96,541.02z M179.58,565c2.17,2.02,4.43,4.13,6.77,6.31c1,3.25,1.91,6.22,2.76,8.95l-4.31,3.37l-14.32-9.39
				L179.58,565z M189.29,580.82c0.82,2.63,1.57,5.04,2.26,7.22l-6.26-4.1L189.29,580.82z M191.81,588.89
				c1.88,5.93,3.29,10.25,4.35,13.35l-6.56,9.46l-17.25-17.67l12.46-9.72L191.81,588.89z M200.92,594.85l0.26,0.17l-0.28,0.41
				C200.9,595.24,200.91,595.05,200.92,594.85z M200.94,594.21c0.12-2.74,0.25-5.76,0.38-9c1.34,1.24,2.69,2.49,4.05,3.75
				l-3.89,5.61L200.94,594.21z M205.79,589.34c8.16,7.55,16.69,15.41,25.15,23.16l-6.64-3.53l-0.11-0.06l-0.52,0.19l-21.71-14.24
				L205.79,589.34z M232.58,613.99c1.23,1.13,2.46,2.25,3.68,3.37l-11.31-7.41L232.58,613.99z M238.85,619.72
				c9.13,8.32,18,16.34,26.04,23.49l-68.19-23.47l26.9-10.03L238.85,619.72z M241.77,621.64l43.74,28.68l-19.29-6.64
				C258.78,637.05,250.49,629.57,241.77,621.64z M286.96,651.4l0.43,0.15l8.91,5.84c0.74,2.72,1.38,5.11,1.9,7.11l-8.07-0.12
				c-5.72-4.7-13.6-11.54-22.83-19.74L286.96,651.4z M298.35,665.06c0.21,0.81,0.4,1.55,0.57,2.22l-5.49-0.23
				c-0.81-0.64-1.68-1.33-2.61-2.1L298.35,665.06z M299.87,671.36c-0.28-0.02-0.8-0.27-1.51-0.71L299.87,671.36L299.87,671.36z
				 M295.67,668.77c-0.46-0.35-0.96-0.72-1.49-1.14l4.88,0.21c0.31,1.25,0.54,2.2,0.68,2.84L295.67,668.77z M292.57,667.01
				l-0.71-0.03l-4.43-2.08l2.57,0.04C290.91,665.68,291.76,666.37,292.57,667.01z M293.31,667.6c0.07,0.05,0.14,0.11,0.21,0.16
				l-0.36-0.17L293.31,667.6z M295.64,669.37c2.2,1.63,3.68,2.54,4.26,2.54c0,0,0,0,0,0c0.22,0,0.34-0.08,0.41-0.16
				c0.04-0.04,0.02-0.12,0.04-0.17l54.79,25.74l-21.13-5.03l-64.39-25.71l22.1,0.94L295.64,669.37z M300.38,670.98
				c-0.11-0.58-0.35-1.62-0.72-3.11l13.5,0.58l45.24,29.66l-0.6-0.14L300.38,670.98z M314.24,668.49l12.72,0.54L369,703.22
				l-8.72-4.1l1.09,0.26L314.24,668.49z M313.33,667.89l-4.07-2.67l13.27,0.2l3.71,3.02L313.33,667.89z M323.43,665.44l6.24,0.09
				l6.26,3.32l-8.76-0.37L323.43,665.44z M330.89,665.55l193.05,2.93c-4.52,2.62-9.04,5.23-13.53,7.84l-173.19-7.4L330.89,665.55z
				 M509.52,676.84c-27.46,15.91-53.89,31.27-75.11,43.67l-96.04-50.98L509.52,676.84z M511.45,676.36
				c4.51-2.61,9.04-5.24,13.57-7.86l23.01,0.35l-10.47,8.63L511.45,676.36z M525.96,667.96c20.22-11.71,40.53-23.45,59.31-34.3
				l-12.16,14.52L548.7,668.3L525.96,667.96z M586.67,632.84c5.75-3.32,11.35-6.56,16.76-9.68l-27.97,23.07L586.67,632.84z
				 M606.35,621.48c12.06-6.96,23.05-13.31,32.45-18.73l-14.55,22.18l-19.44-2.18L606.35,621.48z M608.94,619.34l35.82-29.54
				l0.83,2.58l-6.12,9.34C630.61,606.83,620.28,612.8,608.94,619.34z M645.82,593.06l1.36,4.21c-2.11,1.22-4.31,2.48-6.63,3.83
				L645.82,593.06z M646.21,592.47l1.73-2.63l2.51,5.56c-0.9,0.52-1.82,1.05-2.77,1.6L646.21,592.47z M650.67,595.9l0.11,0.25
				l-2.38,3.11l-0.56-1.73C648.82,596.97,649.75,596.43,650.67,595.9z M651.05,596.73l11.35,25.16l-4.59,6.47l-9.19-28.45
				L651.05,596.73z M651.43,596.23l1.03-1.35c10.82-6.24,17.71-10.21,19-10.95l9.8,11.33l-18.49,26.11L651.43,596.23z
				 M651.17,595.65l-0.01-0.03c0.02-0.01,0.04-0.02,0.05-0.03L651.17,595.65z M650.93,595.12l-2.63-5.83l3.42-5.22l22.48-18.53
				l-22.11,28.92C651.71,594.66,651.31,594.89,650.93,595.12z M648.03,588.68l-0.52-1.14l2.76-2.28L648.03,588.68z M647.27,587.01
				l-7.77-17.23l25.11-29.97l9.41,9.23l-22.73,34.65L647.27,587.01z M669.06,534.49l2.17-2.59l8.73,8.07l-5.42,8.26L669.06,534.49z
				 M671.59,531.47l1.6-1.91l8.09,8.4l-1.01,1.53L671.59,531.47z M681.68,538.38l20.58,21.37l-0.01,0.05l-21.55-19.92L681.68,538.38
				z M702.72,560.23l0.12,0.12l-0.12-0.11L702.72,560.23z M702.86,559.58l3.07-13.47l5.24,6.91l-6.2,8.75L702.86,559.58z
				 M706.09,545.4l0.42-1.84l6.31,7.13l-1.31,1.85L706.09,545.4z M705.65,544.82l-11.87-15.65l12.27,13.88L705.65,544.82z
				 M694.1,519.44l5.64-8.6l8.09,19.65L694.1,519.44z M693.66,519.09l-6.72-5.41l9.89-9.88l2.64,6.43L693.66,519.09z M688.24,511.6
				l7.92-9.45l0.45,1.09L688.24,511.6z M697.26,503.37l5.22-5.22l3.84,1.64l-6.47,9.87L697.26,503.37z M702.35,497.49l-1.69-0.72
				l1.26-1.5l1.56,1.1L702.35,497.49z M701.93,497.92l-4.9,4.9l-0.47-1.14l3.73-4.45L701.93,497.92z M696.32,501.09l-2.78-6.75
				l6.21,2.65L696.32,501.09z M695.92,501.57l-9.67,11.55l-11.93-9.61l-7.76-10.23l5.05,2.84l-8.49-7.38l-8.28-10.92l37.99,16.22
				L695.92,501.57z M654.15,476.91l-17.09-22.54l-2.72-6.82l55.47,39.16l2.71,6.58L654.15,476.91z M635.8,452.71l-6.73-8.88
				l4.44,3.13L635.8,452.71z M627.96,442.37L592.03,395l0.74-1.69c6.93,1,13.88,2.02,20.5,2.99l19.86,49.72L627.96,442.37z
				 M626.45,441.31l-25.6-18.07l-14.17-16.03l5.1-11.63L626.45,441.31z M586.46,406.33c-0.68-0.67-4.28-2.47-22.4-9.06l-8.79-6.21
				l7.54-1.97c8.24,1.12,17.51,2.43,26.91,3.78l1.67,2.2L586.46,406.33z M554.67,390.64l-4.57-3.22c3.41,0.43,7.19,0.93,11.25,1.48
				L554.67,390.64z M549.14,386.73l-9.98-7.05l41.66,1.45l1.69,2.23l-19.74,5.15C557.78,387.85,553.18,387.24,549.14,386.73z
				 M547.97,386.58c-1-0.12-1.95-0.24-2.86-0.35l-7.61-6.61l0.65,0.02L547.97,386.58z M536.83,379.05l-2.01-1.74l2.5,1.76
				L536.83,379.05z M504.5,376.42c-0.34-0.12-0.69-0.24-1.03-0.35l-26.45-24.45l15.43-4.23l31.33,22.12L504.5,376.42z M503.44,376.8
				l-2.76,0.99l-34.15-1.19c-7.09-3.25-14.73-6.78-22.3-10.3l12.25-5.62c14.91,5.03,31.03,10.49,46.67,15.86L503.44,376.8z
				 M445.85,357.77l0.84-0.38c0.14,0.05,0.28,0.09,0.42,0.14L445.85,357.77z M418.6,354.35c-1.21-0.57-2.39-1.12-3.54-1.66
				l10.73-1.99L418.6,354.35z M417.97,354.67l-16.18,8.21l-12.28-5.44l24.61-4.57C415.37,353.45,416.65,354.05,417.97,354.67z
				 M388.62,357.05l-4.74-2.1l26.72-3.72c0.86,0.4,1.74,0.82,2.65,1.24L388.62,357.05z M387.66,357.23l-44.89,8.34
				c-5.78-0.92-11.26-1.8-16.36-2.61l56.44-7.87L387.66,357.23z M326.15,362.43l26.9-13.23l12.58-1.74l16.24,7.2L326.15,362.43z
				 M322.8,363.46l-3.82,1.88l0.92-1.48L322.8,363.46z M320.28,363.25l0.4-0.64c0.65,0.1,1.3,0.21,1.96,0.31L320.28,363.25z
				 M318.03,365.81l-6.12,3.01l3.64-4.34l3.63-0.51L318.03,365.81z M317.47,366.7l-2.52,4.04l-5.51,1.02l1.59-1.9L317.47,366.7z
				 M308.58,371.92l-2.79,0.52l4-1.97L308.58,371.92z M299.07,380.46c-2.92-0.27-5.62-0.52-8.07-0.75l2.26-1.11L299.07,380.46z
				 M301.52,381.25l5.73,1.84l-0.75,1.21l-9,1.71l3.99-4.77C301.5,381.25,301.51,381.25,301.52,381.25z M306.1,384.94l-6.87,11.02
				l-7.8-2.71l5.5-6.57L306.1,384.94z M290.87,393.06l-9.71-3.37l14.92-2.84L290.87,393.06z M280.31,389.99l10.17,3.53l-9.78,11.68
				l-19.71,4.58L280.31,389.99z M259.99,410.01l-27.17,6.31l5.55-10.72l25.73-12.65l15.43-2.94L259.99,410.01z M280.11,405.91
				l-35.13,41.93L205,470.02l3.21-6.19l52.07-53.31L280.11,405.91z M243.99,449.03l-10.14,12.11l-3.42,2.71l-25.5,11.71
				c0.02-0.54,0.03-0.95,0.03-1.15l0.02-0.59l-3.24,2.51l2.81-5.42L243.99,449.03z M204.39,474.97c-0.01,0.22-0.01,0.51-0.02,0.84
				l-2.6,1.19L204.39,474.97z M204.34,476.43c-0.09,2.95-0.26,8.93-0.5,16.79l-13.34,12.51l-5.04-16.1l14.62-11.32l-0.05,0.11
				L204.34,476.43z M190.05,506.15l-17.71,16.61c-1.91-6.45-3.63-12.28-5.03-17.06l8.09-8.28l9.6-7.43L190.05,506.15z
				 M166.82,504.06l5.39-4.17l-5.08,5.21C167.02,504.75,166.92,504.39,166.82,504.06z M178.21,494.54l6.21-6.36l0.39,1.25
				L178.21,494.54z M175.02,497.01l-8.69,6.73l-0.15,0.12l0.05,0.18c0.01,0.04,0.17,0.57,0.44,1.52l-9.46,9.68l2.46-19.45
				l23.11-12.81l1.44,4.61L175.02,497.01z M166.86,506.16c0.9,3.05,2.7,9.2,5.02,17.02l-10.85,10.17l-5.54-4.51l1.61-12.7
				L166.86,506.16z M154.99,528.44l-5.51-4.48l6.98-7.15L154.99,528.44z M152.33,549.47l-1.5,11.88l-23.09-15.14l17.36-17.78
				L152.33,549.47z M152.74,550.66l4.97,14.47c-0.15,0.16-0.29,0.3-0.44,0.45l-5.92-3.88L152.74,550.66z M156.87,565.98
				c-3.48,3.54-5.58,5.87-5.92,6.64l-0.08,0.17l10.08,10.33l-10.24,10.4l-2.91-3.79l3.47-27.42L156.87,565.98z M151.54,572.68
				c0.52-0.89,2.56-3.12,5.79-6.4l1,0.65l4.8,13.98l-1.79,1.82L151.54,572.68z M163.33,581.5l1.73,5.04l-3.33-3.41L163.33,581.5z
				 M163.77,581.05l6.32-6.42l14.25,9.34l-12.36,9.64l-6.01-6.16L163.77,581.05z M171.53,593.97l-2.63,2.05l-2.51-7.32
				L171.53,593.97z M195.05,619.77l-2.03,0.76l-11.6-5.45L195.05,619.77z M195.88,620.06l70.09,24.12
				c9.28,8.25,17.36,15.27,23.35,20.19l-3.1-0.05l-92.49-43.46L195.88,620.06z M284.85,664.3l-40.22-0.61l-1.31-0.02l31.12,14.44
				l-45.57-10.86l-28.12-8.61l-24.14-31.41l16.37-6.1L284.85,664.3z M245.93,664.27l40.14,0.61l4.34,2.04l-24.04-1.03l63.92,25.52
				l-53.14-12.66L245.93,664.27z M333.85,692.83l70.28,28.06l-106.21-32.51l-18.23-8.45L333.85,692.83z M337.57,693.71l20.05,4.78
				l13.2,6.2l2.06,0.97l-44.98-36.59l9.18,0.39l96.77,51.37c-3.58,2.09-7.01,4.1-10.27,6.01l-13.03-3.99L337.57,693.71z
				 M422.92,727.22c-0.19,0.11-0.39,0.23-0.58,0.34l-5.56-2.22L422.92,727.22z M432.57,730.18l23.12,7.08l-4.25,1.93l-20.67-8.26
				L432.57,730.18z M433.37,729.84l9.76-4.07l17.45,9.26l-4.13,1.87L433.37,729.84z M461.2,735.36l0.77,0.41l-3.91,1.63l-0.8-0.25
				L461.2,735.36z M461.84,735.07l13.1-5.95l-3.07,2.53l-9.24,3.84L461.84,735.07z M476.89,728.24l106.32-48.28l1.06-0.48
				l-27.39-1.17l21.56-8.99l16.24,0.25l-12.37,16.18l-108.66,45.19L476.89,728.24z M555.57,678.25l-17.17-0.73l10.49-8.65
				l28.15,0.43L555.57,678.25z M549.56,668.32l21.6-17.81l-9.71,11.6l-0.63,0.76l52.53-17.71l-10.1,13.22l-24.9,10.39L549.56,668.32
				z M562.5,661.7l11-13.13l30.71-25.33l20.15,2.26l0.17,0.02l15.34-23.39c2.63-1.52,5.13-2.96,7.49-4.32l0.64,1.98l-34.06,44.55
				L562.5,661.7z M648.2,600.45l9.25,28.61l0.17,0.53l5.04-7.11l2.13,4.73l-49.91,16.83L648.2,600.45z M681.96,595.22l18-25.42
				l-8.33,36.6L681.96,595.22z M681.59,594.78l-10.01-11.57l-0.2,0.11c-0.42,0.24-7.07,4.07-18.04,10.4l22.77-29.79l1.47-1.92
				l-24.83,20.48l21.68-33.06l0.98,0.96l-0.61-1.53l5.58-8.51l21.72,20.07l-1.81,7.96L681.59,594.78z M702.57,560.87l1.84,1.7
				l-3.28,4.63L702.57,560.87z M711.86,553.01l1.66-2.35l-6.86-7.76l2.23-9.8l14.4,35L711.86,553.01z M722.53,470.67l-13.79,60.57
				l-0.02-0.02l-8.62-20.94l6.73-10.27l4.6,1.96l2.41,1.03l-6.13-4.33l10.98-16.74l1.48-2.26l-16.3,16.29l-1.6-1.13L722.53,470.67z
				 M701.47,494.95l-1.34,1.6l-6.89-2.94l-2.59-6.29L701.47,494.95z M655.18,402.58l34.23,83.17l-55.45-39.15L613.9,396.4
				C635.43,399.57,653.3,402.3,655.18,402.58z M602.87,370.27l10.16,25.44c-6.47-0.95-13.26-1.95-20.03-2.92L602.87,370.27z
				 M592.2,393.23l-0.55,1.26l-1.14-1.51C591.07,393.06,591.63,393.15,592.2,393.23z M589.24,392.24
				c-8.71-1.25-17.28-2.46-25.02-3.52l18.66-4.87L589.24,392.24z M589.87,381.45l-6.77,1.77l-1.56-2.06L589.87,381.45z
				 M544.43,333.15l35.96,47.41l-42.06-1.47l-7.7-5.44l-5.26-4.57l-0.12-0.11l-0.82,0.29l-31.28-22.08L544.43,333.15z
				 M491.86,346.98l-15.47,4.24l-0.48,0.13l26.26,24.27c-16.04-5.49-31.92-10.87-44.96-15.27l15.57-7.15l2.08-0.95l-26.64,5.07
				c-0.26-0.09-0.53-0.18-0.79-0.27l35.72-16.23L491.86,346.98z M467.81,330l15.02,10.6l-49.48,6.9L467.81,330z M430.13,348.5
				l-3.26,1.65c-0.2-0.07-0.34-0.11-0.35-0.12l-0.07-0.02l-12.25,2.28c-0.88-0.41-1.74-0.82-2.58-1.21L430.13,348.5z M394.21,343.52
				c0.76,0.36,6.74,3.18,15.47,7.27l-26.77,3.73l-16.24-7.2L394.21,343.52z M360.87,345.36l3.8,1.68l-10.03,1.39L360.87,345.36z
				 M351.3,349.45l-26.85,13.2c-1.18-0.19-2.33-0.37-3.46-0.55l5.77-9.26L351.3,349.45z M320.4,362c-0.83-0.13-1.65-0.26-2.46-0.39
				l7.16-8.55l0.95-0.13L320.4,362z M328.49,349.02l-2.06,3.3l-0.8,0.11L328.49,349.02z M292.53,357.56l31.75-4.38l-6.98,8.33
				C305.14,359.57,296.21,358.15,292.53,357.56z M317.53,362.11c0.84,0.13,1.69,0.27,2.55,0.41l-0.52,0.84l-3.48,0.48L317.53,362.11
				z M270.59,370.74l44.13-6.15l-4.05,4.83l-6.91,3.4l-16.91,3.14L270.59,370.74z M276.83,378.39l10-1.86l5.68,1.82l-2.56,1.26
				C283.75,379.04,279.24,378.61,276.83,378.39z M290.05,380.18c3.17,0.3,6.77,0.63,10.77,1l-4.18,4.99l-30.66,5.84L290.05,380.18z
				 M242.82,396.99l19.22-3.66l-23.24,11.43L242.82,396.99z M202.02,423.46l35.5-17.46l-5.43,10.48L202.02,423.46z M232.48,416.96
				l26.79-6.22l-50.18,51.38L232.48,416.96z M206.87,465.19l-2.75,5.31l-5.31,2.95L206.87,465.19z M197.45,474.84l6.21-3.44
				l-2.97,5.74l-15.4,11.93l-0.42-1.34L197.45,474.84z M195.76,475.78l-11.08,11.35l-1.39-4.43L195.76,475.78z M167.49,434.08
				l15.13,48.34l-22.85,12.67L167.49,434.08z M125.48,514.75l33.6-18.63l-2.5,19.78l-7.53,7.71l-7.77-6.32l3.63,10.56l-17.64,18.06
				l-5.3-3.48L125.48,514.75z M126.87,546.31l-6.2,6.35l1.22-9.62L126.87,546.31z M121.37,542.7L120,553.55l-18.2-23.69
				L121.37,542.7z M120.25,553.88l7.09-7.26l23.4,15.34l-3.43,27.14L120.25,553.88z M146.82,597.47l0.88-6.96l2.62,3.41
				L146.82,597.47z M151.06,593.96l10.28-10.45l4.14,4.25l2.96,8.61l-9.71,7.57L151.06,593.96z M156.93,606.07l1.7-1.33l2,2.6
				L156.93,606.07z M162.2,608.47l14.32,4.93l15.76,7.4l-16.02,5.97L162.2,608.47z M141.23,640.42l34.85-12.99l23.77,30.93
				L141.23,640.42z M202.56,660.98l-1.21-1.57l18.95,5.8L202.56,660.98z M237.31,669.83l39.67,9.45l17.06,7.91L237.31,669.83z
				 M301.62,690.09l108.76,33.29l11.36,4.54c-6.44,3.78-12.16,7.14-17,10.01L301.62,690.09z M390.49,747.14
				c2.82-1.75,7.74-4.71,14.28-8.58l2.98,1.38L390.49,747.14z M429.34,749.34l-20.22-9.38l20.92-8.73l21.31,8.51l0.11,0.04
				l5.04-2.29l0.76,0.23L429.34,749.34z M458.9,737.65l3.71-1.54l11.93,6.33L458.9,737.65z M465.43,736.97l-2.15-1.14l7.12-2.96
				l-4.38,3.61L465.43,736.97z M549.47,728.69l-82.4,7.65l5.09-4.2l109.46-45.52L549.47,728.69z M620.28,669.94l-36.95,15.37
				l12.04-15.74L620.28,669.94z M595.09,669.01l-15.37-0.23l22.83-9.53L595.09,669.01z M604.26,657.93l10.02-13.11l50.75-17.11
				l1.85,4.09L604.26,657.93z M678.97,657.3l-11.37-25.2l33.64-14.04l0.35-0.15l-9.51-10.99l8.72-38.31l4.02-5.67l4.64,4.29
				l23.58,24.49l1.01,1.05l-1.87-4.54l7.98,7.37L678.97,657.3z M749.3,603.3l-8.34-7.7l1.41-1.42L749.3,603.3z M742.44,593.33
				l-17.83-23.51l-15.45-37.53l52.15,42.01L742.44,593.33z"/>
		</g>
	</g>
</g>
<g id="Layer_2">
	<g>
		<path class="st2" d="M857.37,633.86l-22.99,52.23h-41.39l101.18-229.61h41.39l101.18,229.61h-41.39l-23-52.23H857.37z
			 M956.58,598.06l-41.71-94.6l-41.72,94.6H956.58z"/>
		<path class="st2" d="M1068.59,456.48h38.77v229.61h-38.77V456.48z"/>
		<path class="st2" d="M1382.91,686.09h-43.36l-92.3-229.61h43.36l70.63,171.47l70.62-171.47h43.36L1382.91,686.09z"/>
		<path class="st2" d="M1508.06,456.48h38.77v229.61h-38.77V456.48z"/>
		<path class="st2" d="M1769.55,574.4h38.76v78.51c-21.68,23.87-52.67,35.81-92.96,35.81c-33.95,0-62.36-11.17-85.24-33.51
			c-22.89-22.34-34.33-50.59-34.33-84.75s11.66-62.63,34.98-85.41c23.32-22.77,51.52-34.17,84.59-34.17
			c33.06,0,60.55,9.64,82.45,28.91l-20.7,29.57c-8.98-7.66-18.01-12.98-27.1-15.94c-9.09-2.95-19.65-4.43-31.7-4.43
			c-23.22,0-42.71,7.5-58.47,22.5c-15.77,15-23.66,34.71-23.66,59.13c0,24.42,7.66,44.01,23,58.8
			c15.33,14.78,33.88,22.18,55.68,22.18c21.79,0,40.02-4.71,54.7-14.12V574.4z"/>
		<path class="st2" d="M1859.22,456.48h38.77v229.61h-38.77V456.48z"/>
		<path class="st2" d="M1961.71,686.09V456.48h38.77V649.3h104.78v36.79H1961.71z"/>
	</g>
</g>
</svg>
